<?xml version="1.0" encoding="UTF-8"?>
<svg version="1.1" xmlns="http://www.w3.org/2000/svg" width="1024" height="1024">
<path d="M0 0 C337.92 0 675.84 0 1024 0 C1024 337.92 1024 675.84 1024 1024 C686.08 1024 348.16 1024 0 1024 C0 686.08 0 348.16 0 0 Z " fill="#FDFDFD" transform="translate(0,0)"/>
<path d="M0 0 C0 53.46 0 106.92 0 162 C-9.57 162.99 -19.14 163.98 -29 165 C-35.13229844 166.14733326 -41.03061829 167.30425025 -47 169 C-47.68932617 169.19400391 -48.37865234 169.38800781 -49.08886719 169.58789062 C-82.05845132 179.14649072 -111.29160727 196.3342578 -136 220 C-136.75627686 220.71542969 -136.75627686 220.71542969 -137.52783203 221.4453125 C-147.54095408 230.95317069 -155.81704708 241.18288391 -163 253 C-163.33 253 -163.66 253 -164 253 C-164.25876507 236.96916673 -164.45180481 220.93902675 -164.56993389 204.9066 C-164.62628032 197.45972165 -164.70286823 190.01415223 -164.82983398 182.56811523 C-164.94064794 176.06612917 -165.01071101 169.56509207 -165.03497344 163.06218773 C-165.04912322 159.62908621 -165.08152929 156.19869539 -165.16303062 152.76647758 C-165.5637765 133.74793252 -162.64609978 120.41872554 -153 104 C-152.22739854 102.58997151 -151.46085536 101.17659568 -150.70219421 99.75901794 C-127.97906431 57.67510659 -89.33798682 20.32280166 -43.75 4.6875 C-37.95429308 3.03682398 -32.08003991 2.10934901 -26.125 1.25 C-24.81547363 1.05796997 -24.81547363 1.05796997 -23.47949219 0.86206055 C-15.49094167 -0.17868066 -8.2517993 0 0 0 Z " fill="#F12F65" transform="translate(682,274)"/>
<path d="M0 0 C25.50684932 0 25.50684932 0 37 3 C37.73395996 3.18804199 38.46791992 3.37608398 39.22412109 3.56982422 C75.45623039 13.1600035 107.6710971 39.41800109 130 69 C130.48146484 69.63212402 130.96292969 70.26424805 131.45898438 70.91552734 C138.7344676 80.5199706 145.4240298 90.34307352 151.18692017 100.93365479 C152.9269164 104.11351622 154.7418488 107.20981878 156.67196655 110.27728271 C165.09993125 124.35392438 165.35922349 137.37253729 165.01393938 153.4709444 C164.95036652 156.94866093 164.94547081 160.42651616 164.9336853 163.90472412 C164.90290715 170.45683409 164.82127508 177.0072261 164.72019041 183.55858779 C164.60745158 191.03145769 164.55319552 198.50442051 164.50323606 205.97793245 C164.39940045 221.31960809 164.224123 236.65958043 164 252 C160.70767278 248.76137406 157.87693053 245.61256831 155.25 241.8125 C151.81746881 236.99525453 148.10349013 232.61850198 144.078125 228.2890625 C142.64539398 226.7109039 141.27121639 225.07826226 139.94921875 223.40625 C137.02062247 219.79098886 133.53895207 217.00189065 130 214 C128.57300781 212.74123047 128.57300781 212.74123047 127.1171875 211.45703125 C119.21204922 204.52950333 110.95094062 198.50743291 102 193 C101.33436035 192.5889502 100.6687207 192.17790039 99.98291016 191.75439453 C70.01489995 173.53742939 37.49695734 165.67918975 3 162 C4.40168636 160.35900134 5.80423876 158.71873523 7.2109375 157.08203125 C8.42794546 155.6657316 9.64135823 154.24633643 10.8515625 152.82421875 C11.45742188 152.11910156 12.06328125 151.41398438 12.6875 150.6875 C13.52861328 149.70330078 13.52861328 149.70330078 14.38671875 148.69921875 C16.40496545 146.57346254 18.09157227 145.11721648 21.05859375 144.734375 C30.6475773 144.79735683 39.61154238 146.4190596 48.73046875 149.3359375 C51.81187929 150.23755504 54.81229316 150.65351013 58 151 C51.38491041 143.49566886 39.01702734 141.82258442 29.67993164 139.87548828 C28.42684204 139.59487549 28.42684204 139.59487549 27.1484375 139.30859375 C26.02187744 139.07354126 26.02187744 139.07354126 24.87255859 138.83374023 C23 138 23 138 21.78027344 136.42114258 C20.66871391 132.97203874 20.52837681 129.54552433 20.3671875 125.953125 C20.32562531 125.18192322 20.28406311 124.41072144 20.24124146 123.6161499 C20.1108425 121.16111674 19.99276058 118.70566862 19.875 116.25 C19.78857288 114.58198895 19.70134248 112.91401932 19.61328125 111.24609375 C19.39954183 107.1644839 19.1968441 103.08245812 19 99 C18.94054199 100.61841797 18.94054199 100.61841797 18.87988281 102.26953125 C18.72680349 106.30346122 18.54953066 110.33603803 18.36523438 114.36865234 C18.28905067 116.10828782 18.21927793 117.84821713 18.15625 119.58837891 C18.06407278 122.10164847 17.9482561 124.61292949 17.828125 127.125 C17.79347137 128.27705933 17.79347137 128.27705933 17.75811768 129.45239258 C17.37107537 136.66122722 14.58020501 142.36177445 10.125 148 C9.36509766 148.97453125 9.36509766 148.97453125 8.58984375 149.96875 C7.80287109 150.97421875 7.80287109 150.97421875 7 152 C5.39553502 154.17403143 3.79616455 156.35169143 2.19921875 158.53125 C1.80347656 159.0159375 1.40773438 159.500625 1 160 C0.67 160 0.34 160 0 160 C0 107.2 0 54.4 0 0 Z " fill="#FD9C08" transform="translate(343,274)"/>
<path d="M0 0 C1.60782852 0.00273422 1.60782852 0.00273422 3.24813843 0.00552368 C19.99737105 0.05333814 36.3646223 0.71069273 52.9375 3.3125 C54.0939502 3.48410645 55.25040039 3.65571289 56.44189453 3.83251953 C79.65578526 7.33195961 101.13629943 13.77434011 122.4921875 23.47265625 C134.97234907 27.75897372 146.30229484 22.25346921 157.59814453 17.3125 C173.60645138 10.46945837 191.03636964 7.01497886 208.125 4.125 C209.49289673 3.8928479 209.49289673 3.8928479 210.88842773 3.65600586 C213.90043733 3.16948099 216.91534027 2.73158115 219.9375 2.3125 C221.23421631 2.13154785 222.53093262 1.9505957 223.86694336 1.76416016 C235.28792337 0.27870412 246.60453542 0.00320473 258.11254883 0.05175781 C261.10453847 0.06242704 264.09591962 0.05182039 267.08789062 0.0390625 C279.89336387 0.02908949 292.51583974 0.74062511 305.25323486 2.04144287 C307.79699109 2.29831141 310.34177039 2.53341447 312.88818359 2.76220703 C324.47356369 3.83922865 335.83161933 5.72448406 347.25 7.9375 C348.60191437 8.19578583 348.60191437 8.19578583 349.98114014 8.45928955 C365.58188491 11.45199009 380.87056799 15.16113374 396.14160156 19.52636719 C399.72321431 20.53342212 403.32165005 21.43726982 406.9375 22.3125 C408.03526306 30.54572293 403.38298542 36.38225557 399.1875 43.125 C395.5756674 46.63650392 391.3382411 48.91209576 386.9375 51.3125 C385.885625 51.93125 384.83375 52.55 383.75 53.1875 C371.93561714 56.67371134 358.76977306 53.59450288 346.9375 51.4375 C319.42654115 46.55014968 292.41939631 43.95685617 264.4453125 44.05175781 C260.6769213 44.06253024 256.90900241 44.05176051 253.140625 44.0390625 C239.28148136 44.03066769 225.68393778 44.52220876 211.9375 46.3125 C210.1755127 46.53147949 210.1755127 46.53147949 208.37792969 46.75488281 C190.24973279 49.14769273 172.89005895 53.09269543 156.31030273 60.95239258 C144.84148426 66.34902475 129.9882789 67.65055662 117.6875 64.25 C116.08396466 63.65609802 114.5022827 63.00206526 112.9375 62.3125 C112.36112793 62.06016602 111.78475586 61.80783203 111.19091797 61.54785156 C105.59067481 59.09291193 105.59067481 59.09291193 103.25878906 58.00170898 C92.39054116 53.01787288 80.96924629 50.50959819 69.25439453 48.50219727 C67.06960881 48.12622334 64.88843299 47.73297271 62.70703125 47.33789062 C45.1914549 44.22813196 27.83194147 44.12608131 10.08154297 44.12719727 C6.23783998 44.12502841 2.39443306 44.1068698 -1.44921875 44.08789062 C-24.53826495 44.03285096 -47.29548317 45.39647377 -70.12207031 48.91699219 C-72.75177102 49.32240855 -75.38338632 49.71299393 -78.015625 50.1015625 C-79.73189388 50.35855461 -81.4480449 50.61633535 -83.1640625 50.875 C-83.92973541 50.989646 -84.69540833 51.10429199 -85.48428345 51.22241211 C-90.04867099 51.92926603 -94.53046673 52.82401208 -99.02435303 53.89273071 C-105.37297736 55.20027013 -114.06470156 55.94710756 -119.9375 52.75 C-120.96875 51.945625 -122 51.14125 -123.0625 50.3125 C-123.81144531 49.76851562 -124.56039062 49.22453125 -125.33203125 48.6640625 C-131.63592867 43.99978945 -135.80789219 39.5795537 -138.875 32.25 C-139.31457031 31.22777344 -139.75414062 30.20554687 -140.20703125 29.15234375 C-141.0625 26.3125 -141.0625 26.3125 -141.140625 24.08984375 C-139.32945276 21.10403444 -136.20036149 20.75637439 -133 19.9375 C-132.24904053 19.73253906 -131.49808105 19.52757812 -130.72436523 19.31640625 C-128.17514298 18.62913737 -125.61939002 17.97062613 -123.0625 17.3125 C-121.21092089 16.82037498 -119.35935886 16.3281857 -117.5078125 15.8359375 C-98.1329835 10.76844877 -78.56390007 7.00736889 -58.75 4.125 C-57.16203613 3.89272705 -57.16203613 3.89272705 -55.54199219 3.65576172 C-37.01159854 1.07162943 -18.70437266 -0.06641467 0 0 Z " fill="#E9A220" transform="translate(379.0625,536.6875)"/>
<path d="M0 0 C3.80321968 0.01079624 7.60597341 -0.00001796 11.40917969 -0.01269531 C31.32997311 -0.02591827 50.64912383 1.2662993 70.22167969 5.01074219 C70.9057489 5.14013184 71.58981812 5.26952148 72.2946167 5.40283203 C82.67229826 7.38349668 92.27400219 9.88724855 101.90917969 14.26074219 C103.84571941 15.10256536 105.7858583 15.93556978 107.72705078 16.76660156 C109.46495504 17.51641035 111.19337553 18.28809661 112.92089844 19.06152344 C125.42910959 24.0811585 141.77158586 22.3051386 153.90917969 17.26074219 C156.16225425 16.28867101 158.41214177 15.3091874 160.65917969 14.32324219 C173.86790489 8.59658355 186.99684905 5.72493883 201.15917969 3.51074219 C201.84018738 3.40373993 202.52119507 3.29673767 203.22283936 3.18649292 C216.38434529 1.14398535 229.41464366 0.11087221 242.74121094 0.05761719 C243.92382507 0.05060287 245.10643921 0.04358856 246.32489014 0.03636169 C250.12385919 0.01894879 253.92267218 0.01250843 257.72167969 0.01074219 C259.67193558 0.00973007 259.67193558 0.00973007 261.66159058 0.00869751 C281.27626621 0.02487064 300.46719692 0.53392064 319.90917969 3.26074219 C320.6078717 3.35738159 321.30656372 3.454021 322.02642822 3.55358887 C347.41767427 7.07156481 347.41767427 7.07156481 358.38183594 9.38964844 C367.73286124 11.3122982 376.59000685 11.51354282 385.13574219 7.03417969 C386.90917969 6.26074219 386.90917969 6.26074219 389.40917969 6.76074219 C390.23417969 7.25574219 391.05917969 7.75074219 391.90917969 8.26074219 C393.50735237 8.98249759 395.11208314 9.68983575 396.72167969 10.38574219 C398.11791848 11.00983587 399.5138884 11.63453303 400.90917969 12.26074219 C392.87291481 20.66333253 377.96863601 19.84326685 367.09667969 20.76074219 C358.37401923 21.50253105 349.7370335 22.37859916 341.08911133 23.77880859 C335.426956 24.63693486 329.73444706 25.1624773 324.03417969 25.69824219 C323.38122925 25.76010712 322.72827881 25.82197205 322.05554199 25.88571167 C296.85423471 28.26501643 271.63319076 30.19442262 246.34667969 31.38574219 C245.54677612 31.424263 244.74687256 31.46278381 243.92272949 31.50247192 C237.58643055 31.80248422 231.24859839 32.0375547 224.90917969 32.26074219 C223.74985931 32.30417755 222.59053894 32.34761292 221.39608765 32.3923645 C188.7673865 33.576594 156.11741513 33.44849006 123.47226828 33.44585323 C117.94332381 33.44615737 112.41442813 33.45434041 106.88549805 33.46655273 C62.65473102 33.56199284 18.54625839 33.4655029 -25.50097656 28.91699219 C-30.75788459 28.37713762 -36.0007255 27.95921864 -41.27832031 27.69824219 C-47.67094868 27.37397843 -54.03043584 26.85940217 -60.40332031 26.26074219 C-61.30655029 26.17751709 -62.20978027 26.09429199 -63.14038086 26.00854492 C-63.98640869 25.92677002 -64.83243652 25.84499512 -65.70410156 25.76074219 C-66.45473877 25.68855469 -67.20537598 25.61636719 -67.97875977 25.54199219 C-70.09082031 25.26074219 -70.09082031 25.26074219 -72.08374023 24.75634766 C-74.27035289 24.21641046 -76.34565352 24.00365189 -78.59082031 23.83105469 C-79.46778564 23.75959229 -80.34475098 23.68812988 -81.24829102 23.61450195 C-82.18632568 23.53901123 -83.12436035 23.46352051 -84.09082031 23.38574219 C-94.03371994 22.53138325 -103.85341123 21.27009715 -113.69921875 19.65185547 C-116.11173464 19.25732194 -118.52674856 18.88174316 -120.94238281 18.50683594 C-122.47123084 18.25938404 -123.99988663 18.01074064 -125.52832031 17.76074219 C-126.22030518 17.6544751 -126.91229004 17.54820801 -127.62524414 17.4387207 C-131.69880559 16.74466898 -134.69416543 15.61680338 -138.09082031 13.26074219 C-137.76082031 12.27074219 -137.43082031 11.28074219 -137.09082031 10.26074219 C-133.21219947 8.87029321 -130.22620029 8.26074219 -126.09082031 8.26074219 C-125.76082031 7.60074219 -125.43082031 6.94074219 -125.09082031 6.26074219 C-123.82238281 7.25074219 -123.82238281 7.25074219 -122.52832031 8.26074219 C-113.20432758 13.45103635 -100.66862035 9.98404219 -90.82324219 7.97021484 C-83.23633393 6.43004566 -75.63151873 5.21506922 -67.96582031 4.13574219 C-66.89122559 3.97750977 -65.81663086 3.81927734 -64.70947266 3.65625 C-43.23647945 0.69381536 -21.65284974 -0.07290522 0 0 Z " fill="#E7E7E6" transform="translate(381.0908203125,579.7392578125)"/>
<path d="M0 0 C1.60488281 0.00483398 1.60488281 0.00483398 3.2421875 0.00976562 C4.35335937 0.01814453 5.46453125 0.02652344 6.609375 0.03515625 C8.29933594 0.04192383 8.29933594 0.04192383 10.0234375 0.04882812 C12.80213717 0.06060228 15.58072909 0.07704785 18.359375 0.09765625 C20.19083246 21.68085406 22.0161071 43.26456643 23.83304691 64.84899139 C24.18433983 69.02163783 24.53651303 73.19420821 24.88964844 77.36669922 C26.59762862 97.57131916 28.05690674 117.78487438 29.3581543 138.02001953 C29.47567317 139.84017415 29.59326526 141.66032404 29.7109375 143.48046875 C29.76665421 144.34842072 29.82237091 145.21637268 29.879776 146.11062622 C30.16366493 150.44677294 30.50097894 154.76655613 30.9453125 159.08984375 C31.53703862 165.08543941 31.44548719 171.07937073 31.359375 177.09765625 C30.64958496 177.00677734 29.93979492 176.91589844 29.20849609 176.82226562 C-40.67029393 168.16923241 -117.12613908 176.40797253 -174.828125 220.28515625 C-176.44095685 221.54497429 -178.04906692 222.81106738 -179.640625 224.09765625 C-179.640625 219.91126404 -177.35972946 217.83145131 -174.828125 214.72265625 C-174.32966064 214.10197266 -173.83119629 213.48128906 -173.31762695 212.84179688 C-171.76721054 210.91993415 -170.20485686 209.0082821 -168.640625 207.09765625 C-168.186875 206.5365918 -167.733125 205.97552734 -167.265625 205.39746094 C-154.75346126 189.95275883 -141.04338537 177.36130648 -124.640625 166.09765625 C-123.55394531 165.34871094 -122.46726562 164.59976563 -121.34765625 163.828125 C-87.0763943 141.59934083 -50.03657682 134.09765625 -9.640625 134.09765625 C-9.640625 90.20765625 -9.640625 46.31765625 -9.640625 1.09765625 C-6.11780386 0.21695096 -3.5783246 -0.01903364 0 0 Z " fill="#509A26" transform="translate(702.640625,313.90234375)"/>
<path d="M0 0 C3.5624827 -0.02913821 7.12493454 -0.04684529 10.6875 -0.0625 C12.19860352 -0.07506836 12.19860352 -0.07506836 13.74023438 -0.08789062 C14.71669922 -0.09111328 15.69316406 -0.09433594 16.69921875 -0.09765625 C18.04246216 -0.10551147 18.04246216 -0.10551147 19.4128418 -0.11352539 C22 0 22 0 27 1 C27 44.89 27 88.78 27 134 C35.91 134 44.82 134 54 134 C58.93037909 134.45961161 63.23204545 134.97371382 68 136 C68.75345703 136.15597656 69.50691406 136.31195313 70.28320312 136.47265625 C108.87997476 144.56988107 142.48447805 161.85580442 171 189 C171.75667969 189.69222656 172.51335937 190.38445312 173.29296875 191.09765625 C183.29384913 200.55204044 191.72999035 212.34806673 199 224 C196.02152614 222.63293993 193.69883009 221.03275173 191.1875 218.9375 C156.91593048 192.11627168 112.37529705 180.26357725 70 175 C69.31716446 174.91297318 68.63432892 174.82594635 67.93080139 174.73628235 C62.74715202 174.11047498 57.65261512 173.84059322 52.43359375 173.83203125 C51.64503494 173.82793243 50.85647614 173.82383362 50.04402161 173.8196106 C47.50846915 173.81011875 44.97306754 173.81007474 42.4375 173.8125 C41.57161255 173.81210724 40.7057251 173.81171448 39.81359863 173.81130981 C26.64638691 173.81846161 13.6280092 174.29714389 0.52929688 175.72998047 C-3.97497254 176.21084166 -8.48794925 176.59994586 -13 177 C-13.29806304 163.44898054 -12.36208955 150.1192706 -11.1875 136.625 C-11.00268813 134.43812437 -10.81853333 132.25119311 -10.63500977 130.06420898 C-9.83256888 120.53989455 -9.00280525 111.01795749 -8.171875 101.49609375 C-7.98679178 99.37262306 -7.80182275 97.2491426 -7.61709595 95.12564087 C-7.49710089 93.74717595 -7.37679925 92.36873769 -7.25619507 90.99032593 C-6.13121931 78.09544051 -5.21166872 65.18875052 -4.31524658 52.2762146 C-3.10116954 34.82964943 -1.61596163 17.41358864 0 0 Z " fill="#4F9925" transform="translate(304,314)"/>
<path d="M0 0 C7.59 0 15.18 0 23 0 C22.34721747 11.63923564 21.55774551 23.25522975 20.625 34.875 C20.49354071 36.52905033 20.36211233 38.18310312 20.23071289 39.8371582 C19.3432738 50.95778508 18.40203582 62.073329 17.4375 73.1875 C15.3335572 97.43751852 13.65098477 121.71565966 12 146 C12.91120605 145.68611328 13.82241211 145.37222656 14.76123047 145.04882812 C33.27348844 139.05390424 54.69705592 138.6442842 73.98217773 138.73925781 C76.56583005 138.75001386 79.14878976 138.73925488 81.73242188 138.7265625 C97.98733116 138.71136425 113.84478596 140.30580626 129.8125 143.375 C130.97338135 143.59559082 132.1342627 143.81618164 133.33032227 144.04345703 C141.39096938 145.61016 149.20473274 147.39264829 157 150 C157.71043457 150.22880859 158.42086914 150.45761719 159.15283203 150.69335938 C178.47202408 156.93648769 196.93720906 164.9500012 214 176 C214.56992676 176.36399902 215.13985352 176.72799805 215.72705078 177.10302734 C225.79905059 183.54325508 225.79905059 183.54325508 230 188 C225.87003681 187.33735665 222.35798012 185.97111125 218.5 184.375 C200.72196691 177.47565153 181.66223215 174.03269172 162.875 171.125 C162.20654053 171.02154266 161.53808105 170.91808533 160.84936523 170.81149292 C149.30085965 169.04693976 137.91214485 167.85259501 126.2265625 167.796875 C125.23322403 167.78981537 124.23988556 167.78275574 123.21644592 167.77548218 C101.63036963 167.65705593 80.38672405 167.75410831 59 171 C57.97797485 171.15272369 57.97797485 171.15272369 56.93530273 171.30853271 C31.86499859 175.06232615 6.49851353 179.14403864 -17.76416016 186.61547852 C-22.69639638 188.10120121 -22.69639638 188.10120121 -26 187 C-22.5008069 157.99613845 -18.65021846 129.0687919 -14.35618591 100.17216492 C-12.76980124 89.48409632 -11.23045205 78.78938936 -9.7013855 68.09298706 C-9.26788431 65.06252331 -8.8323799 62.03235252 -8.39672852 59.00219727 C-6.86932232 48.33767036 -5.40492975 37.66848858 -4.07696533 26.97703552 C-3.38829177 21.5473735 -2.52737061 16.18286866 -1.48516846 10.80943298 C-0.86624735 7.22548735 -0.45111366 3.60890927 0 0 Z " fill="#0470B4" transform="translate(267,359)"/>
<path d="M0 0 C3.64581687 -0.02887512 7.29160463 -0.04675585 10.9375 -0.0625 C12.49887695 -0.07506836 12.49887695 -0.07506836 14.09179688 -0.08789062 C15.57583008 -0.09272461 15.57583008 -0.09272461 17.08984375 -0.09765625 C18.46450806 -0.10551147 18.46450806 -0.10551147 19.86694336 -0.11352539 C22 0 22 0 23 1 C23.31445939 3.31330024 23.57580448 5.61580714 23.8125 7.9375 C24.6372202 15.49648157 25.74404536 22.99108791 26.9375 30.5 C28.48729997 40.29009503 29.80912278 50.08235039 30.87280273 59.9375 C31.50522644 65.59005946 32.35727299 71.17120709 33.37890625 76.765625 C35.36673154 87.69289071 36.85745768 98.6868376 38.375 109.6875 C38.6810994 111.89356203 38.98725244 114.09961663 39.29345703 116.30566406 C40.20250146 122.86950752 41.10279608 129.43452873 42 136 C42.1335791 136.97608215 42.2671582 137.95216431 42.40478516 138.95782471 C43.12913641 144.2564086 43.84718645 149.55577747 44.55499268 154.8565979 C44.76460012 156.42429606 44.97545035 157.99182868 45.18768311 159.55917358 C46.46656515 169.02804308 47.44432051 178.45738204 48 188 C42.28229306 186.76389737 36.61414904 185.40754713 30.95043945 183.94506836 C-49.11328245 163.38754009 -129.25737477 161.53702016 -208 188 C-178.6504456 154.97196811 -116.79370015 141.92998929 -75 139 C-69.12676373 138.7458952 -63.25375319 138.75095166 -57.3762207 138.79418945 C-54.80344744 138.81256465 -52.23103566 138.81469711 -49.65820312 138.81445312 C-34.2252236 138.84445377 -19.2657385 139.88023435 -4.0625 142.5625 C-2.68566692 142.79952649 -1.30871388 143.03585728 0.06835938 143.27148438 C3.38014262 143.84087869 6.69056923 144.41711627 10 145 C10.43351129 132.86443638 9.24396433 120.90532184 8.14804077 108.83340454 C7.56283773 102.36572666 7.00001095 95.89613993 6.4453125 89.42578125 C6.38665953 88.74230558 6.32800655 88.05882992 6.26757622 87.35464287 C4.70173535 69.02237272 3.44136545 50.66828816 2.1875 32.3125 C2.131991 31.50110817 2.07648201 30.68971634 2.01929092 29.85373688 C1.33874976 19.90298851 0.66522019 9.95178507 0 0 Z " fill="#0470B3" transform="translate(735,359)"/>
<path d="M0 0 C0.89291245 -0.00287018 1.78582489 -0.00574036 2.70579529 -0.00869751 C4.59268834 -0.01073345 6.47960273 -0.00523655 8.36645508 0.00732422 C11.21290076 0.02325177 14.05789765 0.00752868 16.90429688 -0.01171875 C30.74471979 -0.02809445 46.62351251 0.2021352 57.52734375 10.06640625 C62.93966673 16.07567662 65.25287346 21.74054347 65.18359375 29.7734375 C65.17859863 30.52786133 65.17360352 31.28228516 65.16845703 32.05957031 C64.94889873 39.0460668 63.10768231 43.09155491 58.0859375 47.94140625 C56.07604321 49.70438478 54.07853442 51.20096717 51.68359375 52.3984375 C52.33585938 52.73875 52.988125 53.0790625 53.66015625 53.4296875 C61.46224173 57.75650777 66.919632 62.72232437 69.68359375 71.3984375 C70.64591374 80.82917337 70.68449084 89.57483802 64.68359375 97.3984375 C57.81430445 105.16019352 49.88267023 109.03641866 39.68359375 110.3984375 C32.40769415 110.77692536 25.1099622 110.75377897 17.82592773 110.8034668 C15.44101529 110.82509902 13.05618332 110.8592627 10.67163086 110.90600586 C7.21822979 110.97299045 3.76645889 111.00045728 0.3125 111.01953125 C-0.74811142 111.04736191 -1.80872284 111.07519257 -2.901474 111.10386658 C-9.08429953 111.08673223 -12.59630635 110.34124581 -17.09632874 105.98207092 C-20.10681203 102.0745307 -19.47842822 97.38774644 -19.4934082 92.70776367 C-19.503265 91.37557045 -19.503265 91.37557045 -19.51332092 90.01646423 C-19.53304591 87.07477739 -19.54471425 84.13314156 -19.5546875 81.19140625 C-19.55876303 80.18665064 -19.56283855 79.18189503 -19.56703758 78.14669228 C-19.58789409 72.82948639 -19.6021981 67.5123063 -19.61157227 62.19506836 C-19.62264077 56.70376983 -19.65704712 51.21287607 -19.69674397 45.7217207 C-19.72288878 41.49834947 -19.73126217 37.27507505 -19.73485374 33.05163002 C-19.73972456 31.02744117 -19.7513526 29.00325677 -19.76989174 26.97914696 C-19.7942394 24.14486972 -19.7933262 21.31164472 -19.78637695 18.47729492 C-19.79918701 17.64331177 -19.81199707 16.80932861 -19.82519531 15.95007324 C-19.77775941 10.63515331 -18.8496735 7.61086876 -15.31640625 3.3984375 C-10.36382916 -0.03623159 -5.80978563 -0.04165662 0 0 Z " fill="#038BDE" transform="translate(516.31640625,663.6015625)"/>
<path d="M0 0 C0.8707164 -0.00287018 1.7414328 -0.00574036 2.63853455 -0.00869751 C4.47834932 -0.01073315 6.31818598 -0.00523836 8.15795898 0.00732422 C10.93198956 0.0232489 13.70453277 0.0075296 16.47851562 -0.01171875 C32.05069983 -0.0305269 46.32447044 1.06371252 58.21484375 12.2109375 C65.55921786 20.00794699 68.39902338 29.5258406 68.0859375 40.15234375 C67.26022824 50.25410597 63.53623285 59.89117938 55.984375 66.8671875 C44.9671187 74.9699351 33.06655765 75.69105237 19.90234375 75.5234375 C18.54167326 75.51338728 17.18099558 75.50426504 15.8203125 75.49609375 C12.51413728 75.4726457 9.20833495 75.43982606 5.90234375 75.3984375 C5.91281738 76.25598633 5.92329102 77.11353516 5.93408203 77.99707031 C5.96822671 81.18765263 5.99327334 84.37814162 6.01220703 87.56884766 C6.02224628 88.94811065 6.03588052 90.32735246 6.05322266 91.70654297 C6.07756129 93.6922889 6.0877763 95.678192 6.09765625 97.6640625 C6.10812988 98.85805664 6.11860352 100.05205078 6.12939453 101.28222656 C5.8317084 105.36788864 4.98634363 107.41934084 1.96484375 110.1484375 C-2.69494514 112.05039215 -7.13646062 112.07733795 -12.09765625 111.3984375 C-15.80526898 109.27980165 -17.45636242 107.26509007 -19.09765625 103.3984375 C-19.35492516 101.45497322 -19.35492516 101.45497322 -19.36508179 99.38919067 C-19.37361176 98.6014325 -19.38214172 97.81367432 -19.39093018 97.00204468 C-19.3900238 96.14688263 -19.38911743 95.29172058 -19.38818359 94.41064453 C-19.39490082 93.50286255 -19.40161804 92.59508057 -19.40853882 91.65979004 C-19.42753819 88.65855436 -19.43144399 85.65754208 -19.43359375 82.65625 C-19.44002028 80.56883655 -19.44674853 78.481424 -19.45376587 76.39401245 C-19.46574345 72.0176993 -19.46944619 67.64146511 -19.46826172 63.26513672 C-19.46805849 57.66061927 -19.49536235 52.0566087 -19.52980614 46.45221138 C-19.55205633 42.14046915 -19.55609983 37.82884927 -19.55504227 33.51705551 C-19.55740099 31.45101042 -19.56623974 29.38496209 -19.581707 27.31897354 C-19.60132879 24.42729565 -19.59554376 21.53671554 -19.58349609 18.64501953 C-19.59473511 17.79390594 -19.60597412 16.94279236 -19.61755371 16.06588745 C-19.56090585 10.708346 -18.67037444 7.64065295 -15.09765625 3.3984375 C-10.1918057 0.01352123 -5.74722798 -0.04230055 0 0 Z " fill="#FDAC04" transform="translate(197.09765625,663.6015625)"/>
<path d="M0 0 C9.22738785 6.48017956 15.08203895 14.68464487 17.54296875 25.69140625 C19.33513601 36.78905735 17.71922612 47.68789342 11.79296875 57.40625 C4.79099424 67.08647976 -3.54004157 72.42799907 -15.20703125 74.87890625 C-28.38348238 76.80671089 -39.35421674 75.51864719 -50.58203125 67.94140625 C-59.08552295 61.35212048 -65.01892619 52.24197101 -66.76953125 41.56640625 C-67.37118397 28.57778587 -65.52930434 17.89546193 -57.51953125 7.25390625 C-41.65214288 -8.25285966 -19.21730986 -11.39433416 0 0 Z " fill="#038CE0" transform="translate(750.76953125,700.43359375)"/>
<path d="M0 0 C8.93740807 6.37525061 15.16749193 15.53816165 17.07421875 26.47265625 C18.45499089 38.89960553 15.4518962 50.1409908 8.19140625 60.33984375 C1.72110988 68.22508816 -7.81998506 72.59646278 -17.68359375 74.65234375 C-29.92201047 75.85411213 -41.71055162 74.48830542 -51.68359375 66.65234375 C-52.67359375 65.93046875 -53.66359375 65.20859375 -54.68359375 64.46484375 C-61.5283592 58.59020254 -65.82704502 50.14998128 -67.00073242 41.24658203 C-67.85722016 27.54001988 -66.45064609 16.82724544 -57.18359375 6.15234375 C-41.66129374 -10.24445204 -18.79267424 -12.02848789 0 0 Z " fill="#FD9705" transform="translate(334.68359375,701.34765625)"/>
<path d="M0 0 C9.88733615 7.0566334 17.43677376 16.16988423 19.578125 28.265625 C21.12735331 41.97916446 18.69806036 52.82753645 10.25 63.875 C2.55142892 72.11629019 -9.0624211 76.39551521 -20.12890625 77.23828125 C-32.20189832 77.49924467 -41.90360922 75.15131122 -51 67 C-51.61617187 66.48695313 -52.23234375 65.97390625 -52.8671875 65.4453125 C-58.73087916 60.18560625 -62.62981489 52.78768475 -64 45 C-64.73838869 31.33980927 -64.04714268 19.96743335 -55 9 C-40.74199852 -6.39752986 -18.5335889 -9.8509805 0 0 Z " fill="#038BDF" transform="translate(658,699)"/>
<path d="M0 0 C2.5625 1.6875 2.5625 1.6875 4.5625 4.6875 C4.8409729 7.36405945 4.8409729 7.36405945 4.88134766 10.62768555 C4.90121735 11.84872482 4.92108704 13.0697641 4.94155884 14.32780457 C4.95311005 15.64662125 4.96466125 16.96543793 4.9765625 18.32421875 C4.99527347 19.68757806 5.01484683 21.05092579 5.0352478 22.41426086 C5.08658284 25.99969655 5.12620099 29.58516978 5.16339111 33.17077637 C5.20342231 36.83074238 5.25451865 40.49055201 5.3046875 44.15039062 C5.40146295 51.3293198 5.48586232 58.50832461 5.5625 65.6875 C7.9815251 63.2849146 10.39729039 60.87907668 12.8125 58.47265625 C13.49441406 57.79545532 14.17632813 57.11825439 14.87890625 56.42053223 C18.22733 53.08125162 21.50693097 49.73928314 24.5625 46.125 C32.21036174 37.23168495 32.21036174 37.23168495 36.60546875 36.21484375 C41.03356907 36.0237625 44.1748632 36.88060094 47.5625 39.6875 C49.99566323 42.60729587 50.54357319 44.18593943 50.6875 48 C49.11698294 53.1478059 46.31285269 55.91820613 42.5625 59.6875 C42.06588867 60.19104004 41.56927734 60.69458008 41.05761719 61.21337891 C37.58581773 64.73203829 34.08371068 68.21832691 30.5625 71.6875 C33.27576406 76.67660937 36.25402005 81.0831148 39.8125 85.5 C40.28977539 86.10674561 40.76705078 86.71349121 41.25878906 87.33862305 C43.46820453 90.13660019 45.70740376 92.84850418 48.09375 95.5 C54.15574587 102.33041788 54.15574587 102.33041788 53.875 107.5625 C53.1605456 110.82363863 52.55187914 111.69839319 50.125 114.1875 C45.44402864 116.9275808 41.96310354 117.63328044 36.5625 116.6875 C30.27219933 112.70451806 25.96719707 106.5993249 21.8125 100.5625 C20.71460499 98.99664974 19.61567377 97.43152544 18.515625 95.8671875 C18.00966797 95.13983398 17.50371094 94.41248047 16.98242188 93.66308594 C15.7836113 91.99513973 14.48727944 90.39793809 13.171875 88.8203125 C11.5625 86.6875 11.5625 86.6875 11.5625 83.6875 C8.95783154 85.27981379 7.37908114 86.30246929 5.5625 88.6875 C4.78454466 92.35233478 4.90471492 95.95427941 5 99.6875 C5.21863982 109.81118638 5.21863982 109.81118638 2.22265625 113.8125 C-2.36317954 117.04480716 -6.97133548 117.54420722 -12.4375 116.6875 C-15.5110547 114.98209077 -17.84329136 112.87591729 -19.4375 109.6875 C-19.53537091 108.30513415 -19.57250772 106.91820988 -19.57794189 105.53239441 C-19.58365204 104.66179886 -19.58936218 103.79120331 -19.59524536 102.89422607 C-19.59636322 101.93679504 -19.59748108 100.97936401 -19.59863281 99.99291992 C-19.60359772 98.98628799 -19.60856262 97.97965607 -19.61367798 96.94252014 C-19.62832389 93.60099614 -19.63510583 90.25951962 -19.640625 86.91796875 C-19.64637467 84.60109963 -19.65213242 82.28423053 -19.65789795 79.96736145 C-19.668415 75.10413389 -19.67425299 70.24092289 -19.67773438 65.37768555 C-19.68321906 59.14312177 -19.70724376 52.90877639 -19.73570633 46.67428112 C-19.75432186 41.88649352 -19.75953775 37.09875862 -19.76107025 32.31093788 C-19.7641 30.01241169 -19.77213932 27.7138865 -19.78525543 25.41539574 C-19.80229213 22.20018236 -19.80044123 18.98550375 -19.79394531 15.77026367 C-19.8031601 14.81890533 -19.81237488 13.867547 -19.8218689 12.88735962 C-19.79096765 8.00979588 -19.66177586 4.62489018 -16.4375 0.6875 C-11.43069506 -2.69464783 -5.41451642 -2.06736082 0 0 Z " fill="#028BDF" transform="translate(798.4375,658.3125)"/>
<path d="M0 0 C1.26934387 0.00140488 1.26934387 0.00140488 2.56433105 0.00283813 C36.41611225 0.08353605 75.40546398 2.40293153 105.6328125 19.2578125 C111.61442294 21.80910871 117.56772569 22.57746226 124 22.5625 C124.73395996 22.56088867 125.46791992 22.55927734 126.22412109 22.55761719 C134.39338648 22.37666929 141.95219754 20.53227631 148.9765625 16.265625 C153.69749307 13.49680374 158.82219135 12.15901933 164.0625 10.6875 C165.13387207 10.38489258 166.20524414 10.08228516 167.30908203 9.77050781 C170.47220475 8.8909985 173.64042163 8.03407752 176.8125 7.1875 C177.61204102 6.97029297 178.41158203 6.75308594 179.23535156 6.52929688 C219.79367374 -4.19657049 266.09125875 -2.0665301 307.22412109 3.68798828 C310.19526473 4.10157924 313.16635507 4.48189836 316.14453125 4.83984375 C331.23986995 6.75980242 346.13871699 10.26479297 361.0078125 13.4453125 C362.14382904 13.68578812 362.14382904 13.68578812 363.30279541 13.93112183 C368.5786381 15.07056905 368.5786381 15.07056905 370.8125 16.1875 C370.8125 17.8375 370.8125 19.4875 370.8125 21.1875 C359.45553051 21.62092417 348.96124035 20.34489605 337.8125 18.3125 C310.30154115 13.42514968 283.29439631 10.83185617 255.3203125 10.92675781 C251.5519213 10.93753024 247.78400241 10.92676051 244.015625 10.9140625 C230.15648136 10.90566769 216.55893778 11.39720876 202.8125 13.1875 C201.6378418 13.33348633 200.46318359 13.47947266 199.25292969 13.62988281 C181.12473279 16.02269273 163.76505895 19.96769543 147.18530273 27.82739258 C135.71648426 33.22402475 120.8632789 34.52555662 108.5625 31.125 C106.95896466 30.53109802 105.3772827 29.87706526 103.8125 29.1875 C103.23612793 28.93516602 102.65975586 28.68283203 102.06591797 28.42285156 C96.46567481 25.96791193 96.46567481 25.96791193 94.13378906 24.87670898 C83.26554116 19.89287288 71.84424629 17.38459819 60.12939453 15.37719727 C57.94460881 15.00122334 55.76343299 14.60797271 53.58203125 14.21289062 C36.0664549 11.10313196 18.70694147 11.00108131 0.95654297 11.00219727 C-2.88716002 11.00002841 -6.73056694 10.9818698 -10.57421875 10.96289062 C-33.66326495 10.90785096 -56.42048317 12.27147377 -79.24707031 15.79199219 C-81.87677102 16.19740855 -84.50838632 16.58799393 -87.140625 16.9765625 C-88.85689388 17.23355461 -90.5730449 17.49133535 -92.2890625 17.75 C-93.05473541 17.864646 -93.82040833 17.97929199 -94.60928345 18.09741211 C-99.17206403 18.80401717 -103.65100915 19.69920429 -108.14248657 20.77116394 C-111.4112818 21.43664481 -114.60994994 21.48964455 -117.9375 21.5 C-119.81695312 21.52513672 -119.81695312 21.52513672 -121.734375 21.55078125 C-125.40307462 21.16482077 -127.27546196 20.40388451 -130.1875 18.1875 C-130.5175 17.5275 -130.8475 16.8675 -131.1875 16.1875 C-130.24487305 16.04054688 -130.24487305 16.04054688 -129.28320312 15.890625 C-119.0359702 14.24082761 -108.86838071 12.20006304 -98.6875 10.1875 C-83.36839724 7.15920993 -68.16703888 4.27247356 -52.625 2.625 C-50.94180664 2.43647461 -50.94180664 2.43647461 -49.22460938 2.24414062 C-32.85001179 0.48807766 -16.45877292 -0.02389532 0 0 Z " fill="#C67110" transform="translate(388.1875,569.8125)"/>
<path d="M0 0 C1.09441406 -0.05994141 1.09441406 -0.05994141 2.2109375 -0.12109375 C5.8105433 0.71182474 8.17561709 2.77541453 10.625 5.4375 C12.22278807 8.14764146 13.32088591 10.98013522 14.421875 13.921875 C14.74158264 14.73690491 15.06129028 15.55193481 15.39068604 16.3916626 C16.06083739 18.10981092 16.72262911 19.83124087 17.37646484 21.55566406 C18.36922218 24.17227141 19.38718067 26.77789055 20.41015625 29.3828125 C21.06140254 31.0619164 21.71119009 32.74158695 22.359375 34.421875 C22.65833679 35.19094177 22.95729858 35.96000854 23.26531982 36.75238037 C25.21008461 41.90507937 26.56925713 47.03338248 27.625 52.4375 C28.285 52.4375 28.945 52.4375 29.625 52.4375 C29.80047363 50.90935669 29.80047363 50.90935669 29.97949219 49.3503418 C30.60396898 45.56498268 31.57913534 42.40466557 32.953125 38.83203125 C33.42363281 37.60033203 33.89414062 36.36863281 34.37890625 35.09960938 C34.87758002 33.81639686 35.37627802 32.53319377 35.875 31.25 C36.35870166 29.98656866 36.841779 28.72289812 37.32421875 27.45898438 C38.2757718 24.97326763 39.24237624 22.49510137 40.21679688 20.01806641 C41.13699337 17.67832962 42.04012846 15.33179129 42.92382812 12.97802734 C43.33568359 11.91664551 43.74753906 10.85526367 44.171875 9.76171875 C44.52604492 8.82803467 44.88021484 7.89435059 45.24511719 6.93237305 C46.91782485 3.90806313 48.78639946 2.37407369 51.625 0.4375 C55.80214794 -0.47088662 59.57442317 0.00356609 63.5 1.625 C66.00685822 3.7632026 67.34838897 5.38781809 68.625 8.4375 C68.17845046 13.0008804 66.81505322 16.83745709 65.0625 21.0546875 C64.79928955 21.69258209 64.5360791 22.33047668 64.26489258 22.98770142 C63.39151641 25.09877152 62.50867775 27.2057233 61.625 29.3125 C61.00492181 30.80131299 60.38513634 32.29024792 59.765625 33.77929688 C58.08576229 37.81026585 56.3959136 41.83698837 54.70458984 45.86315918 C53.59766834 48.50267383 52.495496 51.14412841 51.39453125 53.78613281 C49.51504394 58.29525103 47.62668999 62.80056104 45.73193359 67.30328369 C45.00075116 69.04330919 44.27186488 70.78430156 43.54541016 72.52630615 C31.35177961 101.72976969 31.35177961 101.72976969 18.9375 107.375 C12.80808008 109.3131565 5.43644745 109.68873275 -0.6953125 107.67578125 C-3.18513251 106.35794765 -5.06272469 104.83123843 -6.8125 102.625 C-8.07810131 97.70321712 -7.9132602 94.5140204 -5.625 89.9375 C-4.265625 88.44140625 -4.265625 88.44140625 -2.375 87.4375 C0.74869537 87.46770147 3.71000117 87.88712809 6.80078125 88.328125 C9.89955803 88.73951618 9.89955803 88.73951618 12.8125 86.125 C15.46943056 82.18541331 15.97943621 80.21745633 15.625 75.4375 C14.73642836 72.99740037 13.81192144 70.76930313 12.6953125 68.44140625 C12.38917023 67.77913528 12.08302795 67.11686432 11.76760864 66.43452454 C10.77171109 64.28488451 9.76076956 62.14268116 8.75 60 C7.71430426 57.77161613 6.68282353 55.54131369 5.65161133 53.31085205 C4.96195179 51.8196688 4.27103317 50.32906723 3.57885742 48.83905029 C0.57811875 42.37218227 -2.30155378 35.85895047 -5.125 29.3125 C-5.71450439 27.94847046 -5.71450439 27.94847046 -6.31591797 26.55688477 C-7.02381365 24.91528561 -7.72980625 23.27286367 -8.43334961 21.62939453 C-9.04496211 20.20573442 -9.66263042 18.78465515 -10.28735352 17.36669922 C-13.04594237 11.0797586 -13.04594237 11.0797586 -12.375 7.4375 C-9.15155205 2.48720493 -5.92954193 0.17684599 0 0 Z " fill="#FD7B08" transform="translate(411.375,694.5625)"/>
<path d="M0 0 C1.60488281 0.00483398 1.60488281 0.00483398 3.2421875 0.00976562 C4.35335937 0.01814453 5.46453125 0.02652344 6.609375 0.03515625 C8.29933594 0.04192383 8.29933594 0.04192383 10.0234375 0.04882812 C12.80213717 0.06060228 15.58072909 0.07704785 18.359375 0.09765625 C20.19083246 21.68085406 22.0161071 43.26456643 23.83304691 64.84899139 C24.18433983 69.02163783 24.53651303 73.19420821 24.88964844 77.36669922 C26.59762862 97.57131916 28.05690674 117.78487438 29.3581543 138.02001953 C29.4756033 139.84017866 29.59319309 141.66032871 29.7109375 143.48046875 C29.76669952 144.34420609 29.82246155 145.20794342 29.87991333 146.09785461 C30.22762927 151.3844223 30.67078999 156.65417972 31.18066406 161.92773438 C31.43787006 165.05074929 31.45555163 168.15322999 31.421875 171.28515625 C31.41285156 172.39246094 31.40382813 173.49976563 31.39453125 174.640625 C31.38292969 175.45144531 31.37132812 176.26226562 31.359375 177.09765625 C30.369375 177.09765625 29.379375 177.09765625 28.359375 177.09765625 C28.25302734 176.21980469 28.25302734 176.21980469 28.14453125 175.32421875 C27.07215765 172.28315928 25.40071358 171.32264485 22.796875 169.47265625 C21.28481216 168.39227438 19.79625448 167.2761877 18.359375 166.09765625 C18.359375 165.43765625 18.359375 164.77765625 18.359375 164.09765625 C12.53335298 161.76724744 7.11906351 160.72640574 0.921875 160.09765625 C-11.83771252 158.7841898 -11.83771252 158.7841898 -17.640625 156.09765625 C-17.970625 155.43765625 -18.300625 154.77765625 -18.640625 154.09765625 C-15.10561042 153.30991708 -11.73812712 152.92269823 -8.12109375 152.78125 C-6.5887207 152.7184082 -6.5887207 152.7184082 -5.02539062 152.65429688 C-3.97029297 152.61498047 -2.91519531 152.57566406 -1.828125 152.53515625 C-0.75369141 152.49197266 0.32074219 152.44878906 1.42773438 152.40429688 C4.07149582 152.29854642 6.7153461 152.19645392 9.359375 152.09765625 C9.32623199 151.50124832 9.29308899 150.90484039 9.25894165 150.2903595 C7.70622097 122.27505005 6.24054861 94.26103733 5.171875 66.22265625 C5.12935608 65.13715485 5.08683716 64.05165344 5.04302979 62.93325806 C4.52703897 49.64782191 4.24457247 36.39316288 4.359375 23.09765625 C3.79371826 23.54826416 3.22806152 23.99887207 2.64526367 24.46313477 C1.99404541 24.98190186 1.34282715 25.50066895 0.671875 26.03515625 C-0.01261719 26.58042969 -0.69710937 27.12570312 -1.40234375 27.6875 C-3.640625 29.09765625 -3.640625 29.09765625 -8.640625 30.09765625 C-8.640625 64.41765625 -8.640625 98.73765625 -8.640625 134.09765625 C-8.970625 134.09765625 -9.300625 134.09765625 -9.640625 134.09765625 C-9.640625 90.20765625 -9.640625 46.31765625 -9.640625 1.09765625 C-6.11780386 0.21695096 -3.5783246 -0.01903364 0 0 Z " fill="#7DBB28" transform="translate(702.640625,313.90234375)"/>
<path d="M0 0 C3.5624827 -0.02913821 7.12493454 -0.04684529 10.6875 -0.0625 C12.19860352 -0.07506836 12.19860352 -0.07506836 13.74023438 -0.08789062 C14.71669922 -0.09111328 15.69316406 -0.09433594 16.69921875 -0.09765625 C18.04246216 -0.10551147 18.04246216 -0.10551147 19.4128418 -0.11352539 C22 0 22 0 27 1 C27 10.24 27 19.48 27 29 C23.18958866 28.04739717 21.73085974 27.2725068 18.75 24.9375 C18.04359375 24.38964844 17.3371875 23.84179688 16.609375 23.27734375 C16.07828125 22.85582031 15.5471875 22.43429687 15 22 C14.98018066 23.17353027 14.96036133 24.34706055 14.93994141 25.55615234 C14.55781071 47.59113403 14.04580903 69.61040323 13 91.625 C12.95820618 92.5309491 12.91641235 93.43689819 12.87335205 94.37030029 C12.75402408 96.92683649 12.62843642 99.48296937 12.5 102.0390625 C12.46458099 102.79117004 12.42916199 103.54327759 12.39266968 104.31817627 C12.11542565 109.54913545 12.11542565 109.54913545 11.49525452 111.97158813 C10.98698593 114.05330169 10.84329963 115.89481646 10.79467773 118.03417969 C10.77473251 118.81468689 10.75478729 119.59519409 10.73423767 120.39935303 C10.70916893 121.6480014 10.70916893 121.6480014 10.68359375 122.921875 C10.66281265 123.78186096 10.64203156 124.64184692 10.62062073 125.52789307 C10.55536261 128.26851598 10.49635083 131.00923275 10.4375 133.75 C10.39429219 135.6106867 10.35067718 137.47136398 10.30664062 139.33203125 C10.19894106 143.88792612 10.09969132 148.4438947 10 153 C18.25 153.33 26.5 153.66 35 154 C31 159 31 159 28.4855957 159.74780273 C27.55835693 159.80911377 26.63111816 159.8704248 25.67578125 159.93359375 C24.64646484 160.02576172 23.61714844 160.11792969 22.55664062 160.21289062 C20.41358593 160.36126587 18.27035691 160.5071466 16.12695312 160.65039062 C8.73971331 161.31694307 3.54881766 162.94643323 -2 168 C-3.65 169.98 -5.3 171.96 -7 174 C-1.39 174 4.22 174 10 174 C10 174.33 10 174.66 10 175 C7.29215006 175.33772739 4.58383004 175.67030687 1.875 176 C0.73417969 176.14308594 0.73417969 176.14308594 -0.4296875 176.2890625 C-1.55117188 176.42441406 -1.55117188 176.42441406 -2.6953125 176.5625 C-3.37609863 176.64628906 -4.05688477 176.73007812 -4.75830078 176.81640625 C-7.5112603 177.0418719 -10.23913915 177.02764316 -13 177 C-13.29806304 163.44898054 -12.36208955 150.1192706 -11.1875 136.625 C-11.00268813 134.43812437 -10.81853333 132.25119311 -10.63500977 130.06420898 C-9.83256888 120.53989455 -9.00280525 111.01795749 -8.171875 101.49609375 C-7.98679178 99.37262306 -7.80182275 97.2491426 -7.61709595 95.12564087 C-7.49710089 93.74717595 -7.37679925 92.36873769 -7.25619507 90.99032593 C-6.13121931 78.09544051 -5.21166872 65.18875052 -4.31524658 52.2762146 C-3.10116954 34.82964943 -1.61596163 17.41358864 0 0 Z " fill="#87C128" transform="translate(304,314)"/>
<path d="M0 0 C1.29056808 -0.00929787 1.29056808 -0.00929787 2.60720825 -0.01878357 C4.42090733 -0.02586263 6.23467164 -0.02274122 8.04833984 -0.01000977 C10.80559561 0.00383237 13.55943787 -0.03021171 16.31640625 -0.06835938 C18.08593832 -0.06931096 19.85547459 -0.06744962 21.625 -0.0625 C22.43983856 -0.07575821 23.25467712 -0.08901642 24.09420776 -0.10267639 C30.10874813 -0.0061406 34.32399897 1.66797123 38.9453125 5.56640625 C41.00136645 8.65048718 41.20256069 9.35450937 41.25170898 12.85083008 C41.26769638 13.71215042 41.28368378 14.57347076 41.30015564 15.46089172 C41.30551834 16.38903183 41.31088104 17.31717194 41.31640625 18.2734375 C41.32994896 19.71066414 41.32994896 19.71066414 41.34376526 21.17692566 C41.35827672 23.20523958 41.36715671 25.23360042 41.37084961 27.26196289 C41.38272877 30.35709144 41.43189102 33.4502152 41.48242188 36.54492188 C41.49188822 38.51691737 41.49912224 40.48892509 41.50390625 42.4609375 C41.52343857 43.38300491 41.54297089 44.30507233 41.56309509 45.25508118 C41.53303334 49.56213058 41.38600169 52.61524499 38.66040039 56.07299805 C35.14435239 59.30197011 32.61036407 60.8048951 27.82275391 60.85693359 C27.02157135 60.8696933 26.22038879 60.882453 25.39492798 60.89559937 C24.5375705 60.89782501 23.68021301 60.90005066 22.796875 60.90234375 C21.90672699 60.90900055 21.01657898 60.91565735 20.09945679 60.92251587 C18.21834374 60.93262971 16.3371949 60.93733328 14.45605469 60.93701172 C11.58728491 60.9413804 8.72005975 60.97770016 5.8515625 61.015625 C4.02083857 61.02149444 2.19010737 61.02546298 0.359375 61.02734375 C-0.49393402 61.04171478 -1.34724304 61.05608582 -2.22640991 61.07089233 C-7.62133447 61.02978161 -10.89163139 60.32434061 -15.0546875 56.56640625 C-18.50292495 51.60154497 -18.49474387 47.01410767 -18.453125 41.1875 C-18.45599518 40.29781021 -18.45886536 39.40812042 -18.46182251 38.49147034 C-18.46385664 36.61808635 -18.45837247 34.7446808 -18.44580078 32.87133789 C-18.42971862 30.00944462 -18.44568122 27.14895941 -18.46484375 24.28710938 C-18.46286157 22.46223648 -18.45901843 20.63736446 -18.453125 18.8125 C-18.45919769 17.9603038 -18.46527039 17.1081076 -18.4715271 16.23008728 C-18.41620426 11.54340588 -18.215817 8.27775082 -15.0546875 4.56640625 C-10.14391565 0.30092208 -6.21114926 -0.03761995 0 0 Z " fill="#FD780C" transform="translate(501.0546875,262.43359375)"/>
<path d="M0 0 C3.76943927 1.60401671 5.97659144 3.4525879 8 7 C8.27566798 10.00738456 8.3793197 12.80271457 8.34057617 15.80761719 C8.34123329 17.13985573 8.34123329 17.13985573 8.34190369 18.49900818 C8.33981527 21.43185481 8.3164816 24.36412834 8.29296875 27.296875 C8.28737299 29.33139738 8.2831028 31.3659238 8.28010559 33.40045166 C8.2686553 38.75334854 8.23918638 44.10600093 8.20599365 49.45880127 C8.17529684 54.92171929 8.16160108 60.38467683 8.14648438 65.84765625 C8.11431698 76.56521154 8.06311826 87.28258543 8 98 C8.68707031 97.96519531 9.37414062 97.93039062 10.08203125 97.89453125 C10.98308594 97.86746094 11.88414062 97.84039063 12.8125 97.8125 C14.15248047 97.76029297 14.15248047 97.76029297 15.51953125 97.70703125 C18 98 18 98 19.80151367 99.36547852 C21.45171174 101.61605421 21.36655258 103.17250241 21.3125 105.9375 C21.30863281 106.79214844 21.30476563 107.64679688 21.30078125 108.52734375 C20.96692079 111.27193691 20.62541421 112.7562726 19 115 C14.24803553 118.14657107 10.14068587 118.51435242 4.625 118.4375 C3.87130127 118.42992676 3.11760254 118.42235352 2.34106445 118.41455078 C-3.41970852 118.24337067 -7.27908145 117.51754716 -12 114 C-16.46981647 108.79015582 -16.57492291 104.5814184 -16.51757812 98.03491211 C-16.5245874 97.04720322 -16.53159668 96.05949432 -16.53881836 95.04185486 C-16.55638085 91.78672935 -16.54478225 88.53247764 -16.53125 85.27734375 C-16.53394519 83.01103041 -16.53782783 80.7447182 -16.54284668 78.47840881 C-16.5487392 73.73313364 -16.54018557 68.98816 -16.52148438 64.24291992 C-16.49868233 58.16077935 -16.51182795 52.07934434 -16.53577423 45.99722958 C-16.55022751 41.31920555 -16.54562852 36.64134884 -16.53526306 31.96331978 C-16.53259517 29.72062662 -16.5358677 27.47791825 -16.54518127 25.23524284 C-16.55534019 22.1016501 -16.53985459 18.96920092 -16.51757812 15.83569336 C-16.52567505 14.90932068 -16.53377197 13.982948 -16.54211426 13.02850342 C-16.48672603 8.82283095 -16.36627735 6.5861346 -14.09265137 2.94776917 C-9.90519461 -0.94977406 -5.47980686 -0.48402079 0 0 Z " fill="#FD8F08" transform="translate(378,657)"/>
<path d="M0 0 C2.81911005 1.35744376 5.24743169 3.13268495 7.75 5 C8.44303223 5.49822266 9.13606445 5.99644531 9.85009766 6.50976562 C11.24854606 7.51776128 12.64203722 8.53267311 14.03027344 9.5546875 C15.81039311 10.86087348 17.60568503 12.13963183 19.4140625 13.40625 C26.71048253 18.56572379 26.71048253 18.56572379 29 22 C30.00508442 28.02169001 27.1476221 31.5788295 23.875 36.3125 C23.11775635 37.43809326 23.11775635 37.43809326 22.34521484 38.58642578 C21.34907815 40.06604305 20.34808238 41.54240285 19.34179688 43.01513672 C17.70860639 45.43104622 16.17225544 47.90346303 14.625 50.375 C12.47925489 53.54457207 10.68736655 55.61723754 7 57 C1.96173504 57.48983132 -0.4318744 56.49360735 -4.5 53.5625 C-5.52996094 52.83546875 -6.55992187 52.1084375 -7.62109375 51.359375 C-8.16491699 50.97330078 -8.70874023 50.58722656 -9.26904297 50.18945312 C-11.07590789 48.94783876 -12.91714377 47.78797567 -14.78515625 46.640625 C-15.41421875 46.25189209 -16.04328125 45.86315918 -16.69140625 45.46264648 C-17.91201406 44.71234855 -19.13711672 43.96930021 -20.3671875 43.23461914 C-24.02665843 40.95428503 -26.31420964 39.00150238 -28 35 C-28.72413516 29.83450252 -27.24341341 27.09857267 -24.4375 22.8125 C-24.07543457 22.25369141 -23.71336914 21.69488281 -23.34033203 21.11914062 C-22.5950272 19.9691115 -21.84501223 18.82212128 -21.09033203 17.67822266 C-20.06665156 16.10258908 -19.09197026 14.49542682 -18.12109375 12.88671875 C-9.67034383 -1.08443156 -9.67034383 -1.08443156 0 0 Z " fill="#FDAF05" transform="translate(430,214)"/>
<path d="M0 0 C1.49079639 -0.02152132 2.98146843 -0.05555558 4.47167969 -0.10253906 C18.37167981 -0.53647974 18.37167981 -0.53647974 23.03442383 2.36987305 C27.41630932 7.23009582 26.51414461 14.90103404 26.36450195 21.05444336 C26.31188177 23.39993923 26.32334559 25.73883168 26.34301758 28.0847168 C26.33120186 29.58735575 26.31569982 31.08997117 26.29614258 32.5925293 C26.29998962 33.28644775 26.30383667 33.98036621 26.30780029 34.6953125 C26.12003192 40.28103871 24.36846227 42.60554152 20.56176758 46.4050293 C16.28698112 48.54242253 10.61439539 47.63200759 5.86816406 47.64526367 C3.76757847 47.65494491 1.66798183 47.68595614 -0.43237305 47.7175293 C-1.77416413 47.72406216 -3.11596219 47.72931152 -4.45776367 47.7331543 C-6.28464722 47.74717285 -6.28464722 47.74717285 -8.1484375 47.76147461 C-12.84408804 47.25270654 -15.27340398 45.85130883 -18.22363281 42.18823242 C-19.74064055 38.71207398 -19.88790872 35.6009588 -19.87182617 31.8737793 C-19.87706802 31.16024292 -19.88230988 30.44670654 -19.88771057 29.71154785 C-19.89410986 28.2088348 -19.89282092 26.70607153 -19.88427734 25.20336914 C-19.87575687 22.91160558 -19.90456873 20.62232887 -19.9362793 18.33081055 C-19.93789137 16.86596754 -19.93731366 15.40112015 -19.93432617 13.9362793 C-19.94556015 13.25593628 -19.95679413 12.57559326 -19.96836853 11.87463379 C-19.89926571 7.12949943 -18.77869636 4.74198803 -15.43823242 1.4050293 C-10.96852041 -0.82982671 -4.96576431 0.05383974 0 0 Z " fill="#05B5C6" transform="translate(541.438232421875,184.594970703125)"/>
<path d="M0 0 C0.67055923 -0.0038269 1.34111847 -0.00765381 2.03199768 -0.01159668 C3.44655869 -0.01431163 4.86117026 -0.00697932 6.27563477 0.00976562 C8.43165074 0.03115323 10.58432269 0.00997322 12.74023438 -0.015625 C14.11849689 -0.01298099 15.49675733 -0.00785447 16.875 0 C18.1220874 0.00451172 19.3691748 0.00902344 20.65405273 0.01367188 C24.67622379 0.63512823 26.32272825 1.47342661 29.00390625 4.53125 C29.65087891 7.65991211 29.65087891 7.65991211 29.66796875 11.30859375 C29.67763672 13.28569336 29.67763672 13.28569336 29.6875 15.30273438 C29.67702637 15.98682373 29.66655273 16.67091309 29.65576172 17.37573242 C29.62901816 19.46002798 29.65549332 21.53891992 29.6875 23.62304688 C29.68105469 24.94240234 29.67460938 26.26175781 29.66796875 27.62109375 C29.65950928 29.42888306 29.65950928 29.42888306 29.65087891 31.27319336 C28.80440243 35.53592112 27.5017662 36.99026573 24.00390625 39.53125 C20.65405273 40.17822266 20.65405273 40.17822266 16.875 40.1953125 C15.86772606 40.20248795 15.86772606 40.20248795 14.84010315 40.20980835 C13.42731367 40.21319616 12.0144446 40.20407167 10.60180664 40.18310547 C8.44304572 40.15627038 6.28946169 40.18290086 4.13085938 40.21484375 C2.75389482 40.21154026 1.37693348 40.20513526 0 40.1953125 C-1.24595947 40.18967285 -2.49191895 40.1840332 -3.77563477 40.17822266 C-6.99609375 39.53125 -6.99609375 39.53125 -9.40014648 37.42163086 C-11.33808869 33.91187137 -11.51237478 31.61968003 -11.52734375 27.62109375 C-11.5325 26.30173828 -11.53765625 24.98238281 -11.54296875 23.62304688 C-11.53458984 22.94105225 -11.52621094 22.25905762 -11.51757812 21.55639648 C-11.49611345 19.47066428 -11.51742344 17.38836167 -11.54296875 15.30273438 C-11.5378125 13.98466797 -11.53265625 12.66660156 -11.52734375 11.30859375 C-11.52057617 9.50249634 -11.52057617 9.50249634 -11.51367188 7.65991211 C-10.99609375 4.53125 -10.99609375 4.53125 -9.40014648 2.14086914 C-6.14758001 -0.0368673 -3.89894019 0.01411837 0 0 Z " fill="#06B4C7" transform="translate(592.99609375,126.46875)"/>
<path d="M0 0 C5.15862635 2.48378306 9.61345417 6.47256995 11.75390625 11.91796875 C13.81559145 19.37175372 13.62014863 26.11091119 10 33 C7.10156122 37.247712 4.21615225 40.93305977 -1 42 C-7.91485574 42.74340599 -12.37137192 42.16518478 -18 38 C-22.91458987 32.95258338 -24.29105105 27.55918306 -24.375 20.625 C-24.27685965 14.88706107 -23.51388697 10.60558001 -20 6 C-13.84800165 0.15560157 -8.31912425 -0.96734003 0 0 Z " fill="#F9FBFD" transform="translate(732,714)"/>
<path d="M0 0 C4.35463963 2.49466197 6.71577911 5.94789655 8.6875 10.5 C9.5 14 9.5 14 9.6875 17.5 C9.81125 18.758125 9.935 20.01625 10.0625 21.3125 C9.97911463 26.65958704 7.64833791 31.1435588 4.6875 35.5 C-0.10606654 40.06587213 -5.44116048 40.86068976 -11.8125 40.77734375 C-16.84555374 40.21898935 -19.83847341 37.17901678 -23.0625 33.5625 C-27.66399132 27.29935904 -28.02628853 21.93886755 -27.03515625 14.38671875 C-25.74655117 8.06641766 -22.87050651 3.34414423 -17.625 -0.4375 C-11.6445872 -2.35574562 -5.84336205 -2.48536193 0 0 Z " fill="#FDFCF9" transform="translate(318.3125,715.5)"/>
<path d="M0 0 C5.07863543 2.26362037 8.10741641 5.4850271 10.73828125 10.3515625 C13.01861575 17.19256601 12.26572236 24.73886613 9.71484375 31.4140625 C7.15401358 36.49474956 2.98889493 39.46926703 -2.26171875 41.3515625 C-7.28985074 42.02416743 -11.05792752 41.95345812 -15.63671875 39.6640625 C-21.35652915 34.62518191 -23.92171242 29.8359881 -25.26171875 22.3515625 C-25.63826427 15.21871452 -23.81266958 9.84059233 -19.26171875 4.3515625 C-13.39919839 -0.96560713 -7.73390542 -2.21732003 0 0 Z " fill="#F9FCFD" transform="translate(642.26171875,714.6484375)"/>
<path d="M0 0 C4.39925451 2.61234082 7.58176478 5.80787261 9.6875 10.5 C10.96013423 16.82017675 10.46433654 22.03676552 7.0625 27.5625 C4.38122111 31.05954534 1.91514103 33.02951616 -2.3125 34.5 C-2.951875 34.726875 -3.59125 34.95375 -4.25 35.1875 C-11.67827721 36.31299655 -16.82624362 34.79775988 -23.0625 30.6875 C-27.50016562 26.37310287 -28.52460212 22.57071631 -28.75 16.5 C-28.57878874 10.47783009 -27.21458136 7.27326835 -22.81640625 3.0703125 C-16.47197273 -2.53050911 -7.79627971 -3.4165164 0 0 Z " fill="#60AD40" transform="translate(599.3125,818.5)"/>
<path d="M0 0 C3.444375 -0.061875 6.88875 -0.12375 10.4375 -0.1875 C11.50411865 -0.21481201 12.5707373 -0.24212402 13.66967773 -0.27026367 C20.20852889 -0.32652356 27.49696241 -0.1357114 32.62280273 4.45263672 C36.88928795 9.4399091 37.33913419 12.85857926 37.2890625 19.234375 C36.89200663 23.03323384 35.48946283 25.15489962 33 28 C32.54625 28.5775 32.0925 29.155 31.625 29.75 C25.87859771 34.17030946 18.46549741 33.22893656 11.625 33.125 C7.78875 33.08375 3.9525 33.0425 0 33 C0 22.11 0 11.22 0 0 Z " fill="#FEFCF8" transform="translate(203,685)"/>
<path d="M0 0 C1.10021484 -0.00515625 2.20042969 -0.0103125 3.33398438 -0.015625 C4.48318359 -0.00015625 5.63238281 0.0153125 6.81640625 0.03125 C7.96173828 0.01578125 9.10707031 0.0003125 10.28710938 -0.015625 C11.38861328 -0.01046875 12.49011719 -0.0053125 13.625 0 C14.63232178 0.00451172 15.63964355 0.00902344 16.67749023 0.01367188 C20.14916049 0.67882695 21.31494698 1.68548798 23.37890625 4.53125 C24.19366615 8.49281026 23.98186198 12.49519609 23.94140625 16.53125 C23.97717773 18.1709375 23.97717773 18.1709375 24.01367188 19.84375 C23.99941316 27.60048963 23.99941316 27.60048963 21.56640625 31.25 C16.66973903 33.2182682 12.04386419 33.10922327 6.81640625 33.03125 C5.77548828 33.04671875 4.73457031 33.0621875 3.66210938 33.078125 C2.65986328 33.07296875 1.65761719 33.0678125 0.625 33.0625 C-0.28580322 33.05798828 -1.19660645 33.05347656 -2.13500977 33.04882812 C-5.45248254 32.35816307 -6.62270539 31.24236632 -8.62109375 28.53125 C-9.12280273 25.9375 -9.12280273 25.9375 -9.1171875 23.03125 C-9.11783203 21.979375 -9.11847656 20.9275 -9.11914062 19.84375 C-9.09916016 18.750625 -9.07917969 17.6575 -9.05859375 16.53125 C-9.06568359 15.438125 -9.07277344 14.345 -9.08007812 13.21875 C-9.01707471 5.30939864 -9.01707471 5.30939864 -7.4453125 2.22070312 C-4.94141919 -0.09821306 -3.38059718 0.01515841 0 0 Z " fill="#EF405B" transform="translate(626.62109375,209.46875)"/>
<path d="M0 0 C6.1565625 -0.0928125 6.1565625 -0.0928125 12.4375 -0.1875 C13.71294678 -0.21481201 14.98839355 -0.24212402 16.30249023 -0.27026367 C24.06907627 -0.32658278 31.43080263 -0.1230477 37.5 5.1875 C39.43937927 8.82383614 40.18620023 11.87930798 40 16 C38.6182092 20.49082009 36.59149359 22.92213339 32.45654297 25.18847656 C26.77516185 27.06533115 20.48711794 26.39657708 14.5625 26.25 C13.14911379 26.2299083 11.73570007 26.21166223 10.32226562 26.1953125 C6.8802699 26.15493718 3.44213603 26.07663383 0 26 C0 17.42 0 8.84 0 0 Z " fill="#FAFCFD" transform="translate(522,727)"/>
<path d="M0 0 C1.05960937 -0.00386719 2.11921875 -0.00773438 3.2109375 -0.01171875 C4.86996094 0.00568359 4.86996094 0.00568359 6.5625 0.0234375 C8.22152344 0.00603516 8.22152344 0.00603516 9.9140625 -0.01171875 C10.97367187 -0.00785156 12.03328125 -0.00398437 13.125 0 C14.58099609 0.00507568 14.58099609 0.00507568 16.06640625 0.01025391 C18.5625 0.3984375 18.5625 0.3984375 20.37524414 1.56982422 C23.00778107 5.6244616 22.02869761 11.22855299 22 15.8984375 C22.0299707 17.62900391 22.0299707 17.62900391 22.06054688 19.39453125 C22.05990234 20.49925781 22.05925781 21.60398438 22.05859375 22.7421875 C22.06137329 24.26102539 22.06137329 24.26102539 22.06420898 25.81054688 C21.5625 28.3984375 21.5625 28.3984375 19.84790039 30.22485352 C15.64312632 32.38406182 11.19639493 31.86886569 6.5625 31.8359375 C5.56476563 31.85591797 4.56703125 31.87589844 3.5390625 31.89648438 C2.57742188 31.89583984 1.61578125 31.89519531 0.625 31.89453125 C-0.25027344 31.89638428 -1.12554687 31.8982373 -2.02734375 31.90014648 C-5.29955884 31.21898745 -6.46149419 30.06631264 -8.4375 27.3984375 C-8.93920898 24.78881836 -8.93920898 24.78881836 -8.93359375 21.86328125 C-8.93423828 20.80689453 -8.93488281 19.75050781 -8.93554688 18.66210938 C-8.91556641 17.56447266 -8.89558594 16.46683594 -8.875 15.3359375 C-8.88208984 14.23443359 -8.88917969 13.13292969 -8.89648438 11.99804688 C-8.83298715 4.00228124 -8.83298715 4.00228124 -7.25024414 1.58569336 C-4.75727521 -0.04707539 -2.96830924 0.01034769 0 0 Z " fill="#E23664" transform="translate(472.4375,181.6015625)"/>
<path d="M0 0 C4.18819732 -0.10823769 8.37357885 -0.18744544 12.5625 -0.25 C14.33463867 -0.30027344 14.33463867 -0.30027344 16.14257812 -0.3515625 C22.95882988 -0.42793507 27.58591092 -0.34342069 33 4 C35.01723655 6.78125802 35.30659396 8.98149856 35.0625 12.375 C35.01802734 13.46941406 35.01802734 13.46941406 34.97265625 14.5859375 C33.32596972 18.67289443 30.94155004 21.02621248 27 23 C22.32781453 23.7178934 17.77516316 23.56775707 13.0625 23.375 C11.80630859 23.34792969 10.55011719 23.32085938 9.25585938 23.29296875 C6.16983076 23.22256506 3.08469027 23.1149574 0 23 C0 15.41 0 7.82 0 0 Z " fill="#FBFCFD" transform="translate(522,685)"/>
<path d="M0 0 C2.31 0 4.62 0 7 0 C7 11.88 7 23.76 7 36 C0 36 0 36 -1.92456055 34.6105957 C-2.40707275 33.97210693 -2.88958496 33.33361816 -3.38671875 32.67578125 C-3.93263672 31.97646484 -4.47855469 31.27714844 -5.04101562 30.55664062 C-5.58435547 29.81607422 -6.12769531 29.07550781 -6.6875 28.3125 C-7.24244141 27.59126953 -7.79738281 26.87003906 -8.36914062 26.12695312 C-9.41056465 24.77099676 -10.44320059 23.40820772 -11.46362305 22.03637695 C-13.26109064 19.65393977 -15.13563358 17.33045802 -17 15 C-17.33 21.93 -17.66 28.86 -18 36 C-20.31 36 -22.62 36 -25 36 C-25 24.45 -25 12.9 -25 1 C-18 1 -18 1 -15.33984375 3.59765625 C-14.51657477 4.73668368 -13.71648906 5.89274304 -12.9375 7.0625 C-12.08621596 8.25893866 -11.2333594 9.45426005 -10.37890625 10.6484375 C-9.97430176 11.2269043 -9.56969727 11.80537109 -9.15283203 12.40136719 C-7.68042448 14.44315556 -6.05813502 16.31734998 -4.375 18.1875 C-2 21 -2 21 -2 23 C-1.34 23 -0.68 23 0 23 C0 15.41 0 7.82 0 0 Z " fill="#5BAA40" transform="translate(646,817)"/>
<path d="M0 0 C1.60488281 0.00483398 1.60488281 0.00483398 3.2421875 0.00976562 C4.35335937 0.01814453 5.46453125 0.02652344 6.609375 0.03515625 C8.29933594 0.04192383 8.29933594 0.04192383 10.0234375 0.04882812 C12.80213717 0.06060228 15.58072909 0.07704785 18.359375 0.09765625 C18.69757366 3.95141202 19.02905831 7.80571753 19.359375 11.66015625 C19.45476563 12.74619141 19.55015625 13.83222656 19.6484375 14.95117188 C20.10824469 20.35390635 20.48385031 25.67520037 20.359375 31.09765625 C19.699375 31.42765625 19.039375 31.75765625 18.359375 32.09765625 C17.699375 23.51765625 17.039375 14.93765625 16.359375 6.09765625 C10.07743802 13.27275124 10.07743802 13.27275124 5.359375 21.09765625 C4.699375 21.09765625 4.039375 21.09765625 3.359375 21.09765625 C2.9675 21.84015625 2.575625 22.58265625 2.171875 23.34765625 C-0.28008043 27.06786448 -2.6575615 28.14233417 -6.640625 30.09765625 C-7.300625 30.09765625 -7.960625 30.09765625 -8.640625 30.09765625 C-8.640625 64.41765625 -8.640625 98.73765625 -8.640625 134.09765625 C-8.970625 134.09765625 -9.300625 134.09765625 -9.640625 134.09765625 C-9.640625 90.20765625 -9.640625 46.31765625 -9.640625 1.09765625 C-6.11780386 0.21695096 -3.5783246 -0.01903364 0 0 Z " fill="#AAD43B" transform="translate(702.640625,313.90234375)"/>
<path d="M0 0 C2.64 0 5.28 0 8 0 C12.2582607 8.41459495 16.45604583 16.85499038 20.5 25.375 C20.84998047 26.10581787 21.19996094 26.83663574 21.56054688 27.58959961 C24 32.76362079 24 32.76362079 24 35 C21.36 35 18.72 35 16 35 C14.74335022 32.09399739 14 30.20395416 14 27 C7.73 27 1.46 27 -5 27 C-5.66 29.31 -6.32 31.62 -7 34 C-8 35 -8 35 -11.5625 35.0625 C-12.696875 35.041875 -13.83125 35.02125 -15 35 C-13.69345884 30.91743779 -12.20083914 27.00609654 -10.46875 23.0859375 C-9.98792969 21.99539063 -9.50710938 20.90484375 -9.01171875 19.78125 C-8.51285156 18.6571875 -8.01398438 17.533125 -7.5 16.375 C-7.00113281 15.24320313 -6.50226563 14.11140625 -5.98828125 12.9453125 C-1.9742111 3.86253714 -1.9742111 3.86253714 0 0 Z " fill="#5FAC41" transform="translate(336,818)"/>
<path d="M0 0 C0.33 0 0.66 0 1 0 C1.33 52.47 1.66 104.94 2 159 C4.64 155.37 7.28 151.74 10 148 C10.94875 146.72125 11.8975 145.4425 12.875 144.125 C16.56269957 138.7019124 17.3400474 134.14141545 17.59765625 127.6640625 C17.63684677 126.86648529 17.67603729 126.06890808 17.71641541 125.24716187 C17.83999447 122.70675143 17.9518853 120.16600512 18.0625 117.625 C18.17856885 115.09127243 18.29717634 112.55770467 18.41929626 110.02426147 C18.49449983 108.45171162 18.56597843 106.87897754 18.6330719 105.30606079 C18.84111276 100.81069018 19.29333417 96.44514422 20 92 C20.33 92 20.66 92 21 92 C21.02505615 92.7748877 21.0501123 93.54977539 21.07592773 94.34814453 C20.62109051 115.95250214 20.62109051 115.95250214 24 137 C26.10418462 137.88293551 26.10418462 137.88293551 28.70703125 138.39453125 C29.68148193 138.6251123 30.65593262 138.85569336 31.65991211 139.09326172 C32.70026611 139.33061035 33.74062012 139.56795898 34.8125 139.8125 C43.57457857 141.93258656 51.24387168 144.29628347 59 149 C59 149.66 59 150.32 59 151 C53.9187964 151.200659 49.90162922 150.59207853 45.0625 149.0625 C39.93846199 147.53124049 35.32906601 146.35527107 30 146 C29.16597656 145.93683594 28.33195312 145.87367188 27.47265625 145.80859375 C23.49761263 145.62764463 20.83258784 145.53529981 17.3125 147.5 C14.70303523 150.321043 12.13461743 153.16711384 9.6484375 156.09765625 C8.16271808 157.81221871 6.62548911 159.41884241 5 161 C7.64 161.33 10.28 161.66 13 162 C13 162.33 13 162.66 13 163 C11.02090602 163.02686553 9.04171029 163.04633375 7.0625 163.0625 C5.96035156 163.07410156 4.85820312 163.08570313 3.72265625 163.09765625 C1 163 1 163 0 162 C-0.09685318 159.91172679 -0.12186882 157.82011638 -0.12025452 155.729599 C-0.12110894 155.06720909 -0.12196337 154.40481918 -0.12284368 153.72235686 C-0.12450033 151.4866713 -0.11897414 149.25105958 -0.11352539 147.01538086 C-0.11324353 145.41919456 -0.11340123 143.82300813 -0.1139679 142.2268219 C-0.11425592 137.87990105 -0.10835835 133.53300756 -0.10139394 129.18609309 C-0.09516128 124.64836053 -0.09455667 120.11062741 -0.09336853 115.57289124 C-0.09025495 106.9739216 -0.08204122 98.37496461 -0.07201904 89.77600056 C-0.06085872 79.98898272 -0.05534766 70.20196429 -0.05032361 60.41494167 C-0.03985862 40.27662071 -0.02225868 20.13831115 0 0 Z " fill="#FCEEBD" transform="translate(342,274)"/>
<path d="M0 0 C2.05078125 0.03255208 4.1015625 0.06510417 6.15234375 0.09765625 C8.77018424 5.60526387 11.38072532 11.11627113 13.98486328 16.63037109 C15.01399375 18.80527543 16.04910173 20.97720087 17.0859375 23.1484375 C17.62347656 24.28667969 18.16101563 25.42492187 18.71484375 26.59765625 C19.19050781 27.59796875 19.66617188 28.59828125 20.15625 29.62890625 C21.15234375 32.09765625 21.15234375 32.09765625 21.15234375 35.09765625 C18.84234375 35.09765625 16.53234375 35.09765625 14.15234375 35.09765625 C11.15234375 29.34765625 11.15234375 29.34765625 11.15234375 27.09765625 C5.21234375 27.42765625 -0.72765625 27.75765625 -6.84765625 28.09765625 C-8.33265625 31.56265625 -8.33265625 31.56265625 -9.84765625 35.09765625 C-12.15765625 35.09765625 -14.46765625 35.09765625 -16.84765625 35.09765625 C-14.48668667 27.51685596 -11.44865233 20.34774639 -8.22265625 13.09765625 C-7.71992188 11.95425781 -7.2171875 10.81085937 -6.69921875 9.6328125 C-2.49670179 0.13196098 -2.49670179 0.13196098 0 0 Z " fill="#59A93D" transform="translate(436.84765625,817.90234375)"/>
<path d="M0 0 C7 0 7 0 9.87890625 2.5625 C10.79547797 3.69078031 11.68936339 4.83778115 12.5625 6 C13.03212158 6.59143799 13.50174316 7.18287598 13.9855957 7.79223633 C15.34422472 9.51335424 16.67323248 11.25428052 18 13 C18.67289063 13.84949219 19.34578125 14.69898438 20.0390625 15.57421875 C24 20.65210308 24 20.65210308 24 23 C24.66 23 25.32 23 26 23 C26 15.41 26 7.82 26 0 C27.98 0 29.96 0 32 0 C32 11.55 32 23.1 32 35 C30.02 35 28.04 35 26 35 C23.8545066 32.8273866 22.23410879 30.90105766 20.5 28.4375 C19.54678719 27.14884051 18.5923711 25.86107015 17.63671875 24.57421875 C17.18474121 23.95466309 16.73276367 23.33510742 16.26708984 22.69677734 C14.71618982 20.6199459 13.04343595 18.67828731 11.3125 16.75 C9 14 9 14 9 12 C8.34 12 7.68 12 7 12 C7 19.59 7 27.18 7 35 C4.69 35 2.38 35 0 35 C0 23.45 0 11.9 0 0 Z " fill="#5BAC3B" transform="translate(234,818)"/>
<path d="M0 0 C7 0 7 0 9.40625 2.34375 C10.0971875 3.3853125 10.788125 4.426875 11.5 5.5 C14.66609878 10.12027544 17.9672505 14.37296312 21.78515625 18.4765625 C23 20 23 20 23 22 C23.66 22 24.32 22 25 22 C25 14.74 25 7.48 25 0 C26.98 0 28.96 0 31 0 C31 11.55 31 23.1 31 35 C25 35 25 35 23.18896484 33.62646484 C22.70121582 32.99434082 22.2134668 32.3622168 21.7109375 31.7109375 C21.16179688 31.01613281 20.61265625 30.32132813 20.046875 29.60546875 C19.49515625 28.86941406 18.9434375 28.13335938 18.375 27.375 C17.81554687 26.66214844 17.25609375 25.94929687 16.6796875 25.21484375 C8 14.05816996 8 14.05816996 8 11 C7.34 11 6.68 11 6 11 C6 18.92 6 26.84 6 35 C4.02 35 2.04 35 0 35 C0 23.45 0 11.9 0 0 Z " fill="#53A435" transform="translate(722,818)"/>
<path d="M0 0 C2.31 0 4.62 0 7 0 C7 4.95 7 9.9 7 15 C12.61 15 18.22 15 24 15 C24 10.38 24 5.76 24 1 C26.64 1 29.28 1 32 1 C32 12.55 32 24.1 32 36 C29.69 36 27.38 36 25 36 C25 31.05 25 26.1 25 21 C19.06 21 13.12 21 7 21 C7 25.95 7 30.9 7 36 C4.69 36 2.38 36 0 36 C0 24.12 0 12.24 0 0 Z " fill="#5DAD41" transform="translate(509,817)"/>
<path d="M0 0 C2.31 0 4.62 0 7 0 C7 4.95 7 9.9 7 15 C12.94 15 18.88 15 25 15 C25 10.38 25 5.76 25 1 C27.31 1 29.62 1 32 1 C32 12.55 32 24.1 32 36 C29.69 36 27.38 36 25 36 C25 31.05 25 26.1 25 21 C19.06 21 13.12 21 7 21 C7 25.95 7 30.9 7 36 C4.69 36 2.38 36 0 36 C0 24.12 0 12.24 0 0 Z " fill="#5BAC3A" transform="translate(280,817)"/>
<path d="M0 0 C8.91 0 17.82 0 27 0 C27 1.98 27 3.96 27 6 C20.4 6 13.8 6 7 6 C7 9.3 7 12.6 7 16 C12.61 16 18.22 16 24 16 C24 17.65 24 19.3 24 21 C18.39 21 12.78 21 7 21 C7 23.97 7 26.94 7 30 C13.6 30 20.2 30 27 30 C27 31.98 27 33.96 27 36 C18.09 36 9.18 36 0 36 C0 24.12 0 12.24 0 0 Z " fill="#5CAA3F" transform="translate(767,817)"/>
<path d="M0 0 C1.62890625 0.82421875 1.62890625 0.82421875 3.81640625 2.32421875 C3.15640625 3.97421875 2.49640625 5.62421875 1.81640625 7.32421875 C0.60984375 7.07671875 0.60984375 7.07671875 -0.62109375 6.82421875 C-8.06510903 5.68046847 -8.06510903 5.68046847 -15.18359375 7.32421875 C-14.85359375 8.97421875 -14.52359375 10.62421875 -14.18359375 12.32421875 C-13.1471875 12.63875 -12.11078125 12.95328125 -11.04296875 13.27734375 C-9.67297244 13.70898642 -8.30319189 14.14131435 -6.93359375 14.57421875 C-6.25167969 14.77917969 -5.56976563 14.98414063 -4.8671875 15.1953125 C-0.71050511 16.52706511 2.15882302 17.805444 4.81640625 21.32421875 C5.28942395 25.04078643 5.09570933 27.55613527 3.81640625 31.07421875 C0.54682521 34.75249742 -3.41127502 35.9869024 -8.23828125 36.57421875 C-14.15433195 36.75837597 -19.2662726 35.60243285 -24.18359375 32.32421875 C-22.43359375 27.44921875 -22.43359375 27.44921875 -20.18359375 26.32421875 C-18.49593841 27.08531822 -16.80870681 27.84739253 -15.125 28.6171875 C-11.03814995 30.10555744 -7.22171346 29.67025865 -3.18359375 28.32421875 C-3.18359375 26.67421875 -3.18359375 25.02421875 -3.18359375 23.32421875 C-4.84648437 22.86982422 -4.84648437 22.86982422 -6.54296875 22.40625 C-8.00677744 21.98399749 -9.47030477 21.56076876 -10.93359375 21.13671875 C-11.66320312 20.94013672 -12.3928125 20.74355469 -13.14453125 20.54101562 C-17.90514567 19.13447046 -20.53447519 17.76900272 -23.18359375 13.32421875 C-23.78213254 9.1344472 -23.68115048 7.1238635 -21.43359375 3.51171875 C-15.80693325 -1.95864563 -7.35800088 -2.27716306 0 0 Z " fill="#5BA63A" transform="translate(408.18359375,817.67578125)"/>
<path d="M0 0 C1.0725 0.66 2.145 1.32 3.25 2 C3.25 2.99 3.25 3.98 3.25 5 C1.25 6.6875 1.25 6.6875 -0.75 8 C-1.595625 7.505 -2.44125 7.01 -3.3125 6.5 C-7.23083062 4.790183 -9.51813363 4.4710167 -13.75 5 C-17.99028619 7.2587937 -17.99028619 7.2587937 -20.75 11 C-20.87148305 12.62165752 -20.92543652 14.24884327 -20.9375 15.875 C-20.95167969 16.73867188 -20.96585937 17.60234375 -20.98046875 18.4921875 C-20.73243618 21.19111813 -20.22382301 22.73785306 -18.75 25 C-14.50018994 27.83320671 -10.74102956 27.53392409 -5.75 27 C-2.2452235 25.67014431 -2.2452235 25.67014431 0.25 24 C1.57 25.65 2.89 27.3 4.25 29 C-0.93206799 33.57241293 -5.66051411 35.5268772 -12.66796875 35.3125 C-17.96669804 34.51719354 -22.2025676 31.9531836 -25.6875 27.9375 C-29.75485008 22.14460746 -29.46952154 15.85613056 -28.75 9 C-26.95742671 4.32966332 -23.3684439 0.91467913 -18.8984375 -1.33984375 C-12.5714179 -3.28396432 -5.91715619 -2.94281303 0 0 Z " fill="#5EAC40" transform="translate(493.75,819)"/>
<path d="M0 0 C0.71994141 -0.00708984 1.43988281 -0.01417969 2.18164062 -0.02148438 C7.40454361 0.04155902 7.40454361 0.04155902 9.64306641 1.70458984 C11.23529981 3.83617654 11.31162272 4.9584914 11.30078125 7.59765625 C11.30013672 8.39107422 11.29949219 9.18449219 11.29882812 10.00195312 C11.28271484 10.82630859 11.26660156 11.65066406 11.25 12.5 C11.25483398 13.74233398 11.25483398 13.74233398 11.25976562 15.00976562 C11.20462592 21.17037408 11.20462592 21.17037408 8.9375 23.4375 C5.97897891 23.88110072 2.98801549 23.76162652 0 23.75 C-0.82435547 23.76611328 -1.64871094 23.78222656 -2.49804688 23.79882812 C-3.29146484 23.79947266 -4.08488281 23.80011719 -4.90234375 23.80078125 C-5.62800537 23.80376221 -6.35366699 23.80674316 -7.10131836 23.80981445 C-9.65361185 23.3252822 -10.52482489 22.50728773 -12.0625 20.4375 C-12.3883438 17.69277967 -12.52698502 15.24020623 -12.5 12.5 C-12.5299707 11.42588867 -12.5299707 11.42588867 -12.56054688 10.33007812 C-12.55748467 7.02595725 -12.28163064 4.79372775 -10.5390625 1.9609375 C-7.08288717 -0.16510095 -3.93088932 -0.10968278 0 0 Z " fill="#F97A59" transform="translate(583.0625,248.5625)"/>
<path d="M0 0 C4.33219178 2.75684932 4.33219178 2.75684932 5.75 5.75 C6.33283547 10.06460145 6.24540819 13.61056116 4.5 17.625 C2.10425145 20.53412324 0.13796225 22.49948974 -3.65234375 23.18359375 C-7.88524639 23.19011594 -10.52798326 23.17117643 -14.25 21 C-17.79830589 17.00815588 -18.71377139 14.27367618 -18.5703125 8.78125 C-17.92496059 4.68877448 -15.67442851 1.83060094 -12.4375 -0.625 C-7.94955328 -1.90727049 -4.33725194 -1.66817382 0 0 Z " fill="#FAFCF9" transform="translate(596.25,824.25)"/>
<path d="M0 0 C2.31 0 4.62 0 7 0 C7 9.9 7 19.8 7 30 C12.94 30 18.88 30 25 30 C25 31.98 25 33.96 25 36 C16.75 36 8.5 36 0 36 C0 24.12 0 12.24 0 0 Z " fill="#5FAC42" transform="translate(666,817)"/>
<path d="M0 0 C0.33 0 0.66 0 1 0 C1.33 7.59 1.66 15.18 2 23 C10.25 23.33 18.5 23.66 27 24 C23 29 23 29 20.4855957 29.74780273 C19.55835693 29.80911377 18.63111816 29.8704248 17.67578125 29.93359375 C16.64646484 30.02576172 15.61714844 30.11792969 14.55664062 30.21289062 C12.41358593 30.36126587 10.27035691 30.5071466 8.12695312 30.65039062 C0.58389212 31.33100285 -4.13724376 33.21238633 -10 38 C-10.61907227 38.49411377 -11.23814453 38.98822754 -11.87597656 39.49731445 C-13.27276831 40.63832427 -14.64050436 41.81479867 -16 43 C-16.66 42.67 -17.32 42.34 -18 42 C-17.16855469 40.98421875 -16.33710938 39.9684375 -15.48046875 38.921875 C-9.0488921 30.85338438 -4.57654156 24.41174322 -3 14 C-2.62875 12.9275 -2.2575 11.855 -1.875 10.75 C-0.73592472 7.17004913 -0.38640706 3.73526824 0 0 Z " fill="#9ECA48" transform="translate(312,444)"/>
<path d="M0 0 C0.66 0.33 1.32 0.66 2 1 C2.46471265 2.71194145 2.84491816 4.44700034 3.1875 6.1875 C5.66478264 16.67216089 10.44744903 26.26324047 18 34 C17.505 34.99 17.505 34.99 17 36 C15.49428343 34.88266271 13.99555708 33.75589965 12.5 32.625 C11.6646875 31.99851562 10.829375 31.37203125 9.96875 30.7265625 C9.3190625 30.15679687 8.669375 29.58703125 8 29 C8 28.34 8 27.68 8 27 C2.17397798 24.66959119 -3.24031149 23.62874949 -9.4375 23 C-22.19708752 21.68653355 -22.19708752 21.68653355 -28 19 C-28.33 18.34 -28.66 17.68 -29 17 C-25.46498542 16.21226083 -22.09750212 15.82504198 -18.48046875 15.68359375 C-16.9480957 15.62075195 -16.9480957 15.62075195 -15.38476562 15.55664062 C-14.32966797 15.51732422 -13.27457031 15.47800781 -12.1875 15.4375 C-11.11306641 15.39431641 -10.03863281 15.35113281 -8.93164062 15.30664062 C-6.28789949 15.20089098 -3.64396588 15.09997297 -1 15 C-0.67 10.05 -0.34 5.1 0 0 Z " fill="#96C346" transform="translate(713,451)"/>
<path d="M0 0 C2 2 2 2 2.09765625 5.421875 C2.08984131 6.11128174 2.08202637 6.80068848 2.07397461 7.51098633 C2.01818857 18.39638506 5.64609463 24.47760582 12 33 C12.70674629 34.31252882 13.39609584 35.63709062 14 37 C10.51327545 35.4512456 7.81445969 33.35487655 4.875 30.9375 C0.66276597 27.48146822 -1.32362345 25.86941942 -6.7890625 25.90234375 C-8.20058594 25.90717773 -8.20058594 25.90717773 -9.640625 25.91210938 C-10.62546875 25.92048828 -11.6103125 25.92886719 -12.625 25.9375 C-13.61757813 25.94201172 -14.61015625 25.94652344 -15.6328125 25.95117188 C-18.0886016 25.96297855 -20.54427104 25.979446 -23 26 C-23.33 24.68 -23.66 23.36 -24 22 C-20.22676325 19.7182783 -16.15298454 19.16070132 -11.875 18.4375 C-6.79250831 17.70057619 -6.79250831 17.70057619 -2 16 C-1.52402634 13.29400158 -1.15906371 10.66404596 -0.875 7.9375 C-0.78863281 7.17888672 -0.70226562 6.42027344 -0.61328125 5.63867188 C-0.40060483 3.76003014 -0.19924541 1.88011364 0 0 Z " fill="#FBDFEC" transform="translate(664,394)"/>
<path d="M0 0 C2.31 0 4.62 0 7 0 C7 11.88 7 23.76 7 36 C4.69 36 2.38 36 0 36 C0 24.12 0 12.24 0 0 Z " fill="#5AAA3D" transform="translate(701,817)"/>
<path d="M0 0 C0 0.99 0 1.98 0 3 C0.66 3.33 1.32 3.66 2 4 C0.87207031 4.2578125 -0.25585938 4.515625 -1.41796875 4.78125 C-6.20753169 5.98416109 -10.73331987 7.66396509 -15.3125 9.5 C-16.16682617 9.84095703 -17.02115234 10.18191406 -17.90136719 10.53320312 C-27.27484992 14.3732741 -36.14061135 19.10929676 -45 24 C-45.66 23.34 -46.32 22.68 -47 22 C-43.34756319 17.96419673 -39.68629417 15.5116769 -34.75 13.1875 C-34.0605127 12.85347168 -33.37102539 12.51944336 -32.66064453 12.17529297 C-30.44533067 11.10629553 -28.22291519 10.05308574 -26 9 C-24.46067826 8.25965334 -22.92161588 7.5187672 -21.3828125 6.77734375 C-19.88069522 6.05887701 -18.37810392 5.34140032 -16.875 4.625 C-16.17729492 4.29137451 -15.47958984 3.95774902 -14.76074219 3.61401367 C-4.14523587 -1.38174529 -4.14523587 -1.38174529 0 0 Z " fill="#DC2F70" transform="translate(641,417)"/>
<path d="M0 0 C4.8229988 1.47307095 9.2000876 3.42650127 13.6875 5.6875 C14.38359375 6.03619141 15.0796875 6.38488281 15.796875 6.74414062 C21.78825319 9.79499895 27.43224017 13.22524757 33 17 C32.67 17.66 32.34 18.32 32 19 C27.57811894 18.43907013 24.14285543 17.32420576 20.15625 15.34765625 C19.07472656 14.81849609 17.99320312 14.28933594 16.87890625 13.74414062 C15.20634766 12.91172852 15.20634766 12.91172852 13.5 12.0625 C11.28287685 10.96675416 9.06417461 9.87419645 6.84375 8.78515625 C5.86599609 8.29926025 4.88824219 7.81336426 3.88085938 7.31274414 C0.96834549 5.98557574 -1.94787197 4.95675956 -5 4 C-5 3.67 -5 3.34 -5 3 C-3.02 3 -1.04 3 1 3 C0.67 2.01 0.34 1.02 0 0 Z " fill="#FDB750" transform="translate(400,422)"/>
<path d="M0 0 C5.00843911 0.42307312 9.41412639 1.66666122 14.125 3.375 C15.89230469 4.00535156 15.89230469 4.00535156 17.6953125 4.6484375 C20.70536169 5.87949781 23.34404272 7.12579618 26 9 C26 9.66 26 10.32 26 11 C21.06945453 11.18652757 17.23802304 10.66292715 12.5625 9.125 C4.7871036 6.76476127 -2.93259576 5.79626328 -11 5 C-11 4.67 -11 4.34 -11 4 C-9.741875 3.896875 -8.48375 3.79375 -7.1875 3.6875 C-3.91243043 3.38607752 -3.91243043 3.38607752 -1.4375 1.375 C-0.963125 0.92125 -0.48875 0.4675 0 0 Z " fill="#FDCF7A" transform="translate(375,414)"/>
<path d="M0 0 C0.33 0 0.66 0 1 0 C1 33.66 1 67.32 1 102 C-0.32 100.68 -1.64 99.36 -3 98 C-2.505 97.01 -2.505 97.01 -2 96 C-1.67 96 -1.34 96 -1 96 C-0.67 64.32 -0.34 32.64 0 0 Z " fill="#FA5A04" transform="translate(506,424)"/>
<path d="M0 0 C0.33 0 0.66 0 1 0 C1.33 7.59 1.66 15.18 2 23 C5.96 23.33 9.92 23.66 14 24 C14 24.33 14 24.66 14 25 C13.25234375 25.03738281 12.5046875 25.07476562 11.734375 25.11328125 C10.74953125 25.17902344 9.7646875 25.24476563 8.75 25.3125 C7.77546875 25.37050781 6.8009375 25.42851562 5.796875 25.48828125 C2.74658389 26.04636524 1.29288724 26.96369776 -1 29 C-3 28 -3 28 -6 26 C-3.29241877 14.84476534 -3.29241877 14.84476534 -1.875 10.75 C-0.73592472 7.17004913 -0.38640706 3.73526824 0 0 Z M-3 24 C-2.67 24.66 -2.34 25.32 -2 26 C-1.67 25.34 -1.34 24.68 -1 24 C-1.66 24 -2.32 24 -3 24 Z " fill="#ACCF5E" transform="translate(312,444)"/>
<path d="M0 0 C0 0.99 0 1.98 0 3 C0.66 3.33 1.32 3.66 2 4 C0.88625 4.2475 -0.2275 4.495 -1.375 4.75 C-4.78651251 5.58473178 -7.89689824 6.74572016 -11.125 8.125 C-14.91291505 9.70329794 -17.83953792 10.43794338 -22 10 C-22 9.01 -22 8.02 -22 7 C-19.96023786 6.03761964 -17.91809954 5.08027473 -15.875 4.125 C-14.16957031 3.32449219 -14.16957031 3.32449219 -12.4296875 2.5078125 C-3.82514735 -1.27504912 -3.82514735 -1.27504912 0 0 Z " fill="#E65D93" transform="translate(641,417)"/>
<path d="M0 0 C0.99 0.33 1.98 0.66 3 1 C3.33 1.99 3.66 2.98 4 4 C2.18777319 5.97941743 0.37523172 7.95854505 -1.4375 9.9375 C-1.95376953 10.50146484 -2.47003906 11.06542969 -3.00195312 11.64648438 C-6.88671875 15.88671875 -6.88671875 15.88671875 -8 17 C-5.36 17.33 -2.72 17.66 0 18 C0 18.33 0 18.66 0 19 C-3.96 19 -7.92 19 -12 19 C-10.95743629 14.82974515 -9.6708485 12.89446467 -7.125 9.5 C-6.07699219 8.09234375 -6.07699219 8.09234375 -5.0078125 6.65625 C-4.34523438 5.7796875 -3.68265625 4.903125 -3 4 C-2.41992188 3.2265625 -1.83984375 2.453125 -1.2421875 1.65625 C-0.83226562 1.1096875 -0.42234375 0.563125 0 0 Z " fill="#FEDD8D" transform="translate(355,418)"/>
<path d="M0 0 C0.66 0 1.32 0 2 0 C2.83764268 1.95649397 3.66999059 3.91525556 4.5 5.875 C4.9640625 6.96554687 5.428125 8.05609375 5.90625 9.1796875 C7 12 7 12 7 14 C3.04 14 -0.92 14 -5 14 C-1.85714286 4.42857143 -1.85714286 4.42857143 0 0 Z " fill="#F0F7ED" transform="translate(438,825)"/>
<path d="M0 0 C3.15702316 3.90869534 6 7.8614939 6 13 C2.04 13 -1.92 13 -6 13 C-2.25 3.375 -2.25 3.375 0 0 Z " fill="#F2F9F0" transform="translate(340,826)"/>
<path d="M0 0 C0.33 0 0.66 0 1 0 C1.33 12.87 1.66 25.74 2 39 C1.67 39 1.34 39 1 39 C0.67 36.36 0.34 33.72 0 31 C-0.66 31.66 -1.32 32.32 -2 33 C-2.36520833 21.88143519 -1.23223906 11.03514084 0 0 Z " fill="#FDCC5B" transform="translate(362,366)"/>
<path d="M0 0 C3.279375 -0.04125 6.55875 -0.0825 9.9375 -0.125 C10.95191162 -0.14320801 11.96632324 -0.16141602 13.01147461 -0.18017578 C18.98801808 -0.21613364 24.21422042 0.49273024 30 2 C26.57927056 3.01049994 24.02453401 2.77254647 20.49609375 2.265625 C15.37387947 1.72053803 10.13357904 1.57098985 5 2 C4.34 2.66 3.68 3.32 3 4 C2.34 3.67 1.68 3.34 1 3 C1 13.23 1 23.46 1 34 C0.67 34 0.34 34 0 34 C0 22.78 0 11.56 0 0 Z " fill="#FDD41A" transform="translate(343,274)"/>
<path d="M0 0 C-8.52601156 3.75144509 -8.52601156 3.75144509 -13 5 C-13.66 4.67 -14.32 4.34 -15 4 C-14.41070077 13.03592156 -10.04765586 20.43397364 -4 27 C-9.32009427 25.02959471 -12.02538055 20.94404093 -14.46484375 16.078125 C-17.98673492 8.0782614 -17.98673492 8.0782614 -18.02734375 4.77734375 C-16.3345688 1.84877872 -13.84322969 1.59665905 -10.6875 0.6875 C-8.96080078 0.16736328 -8.96080078 0.16736328 -7.19921875 -0.36328125 C-4.2310317 -0.95401933 -2.77279094 -1.0611916 0 0 Z " fill="#F8CA36" transform="translate(256,556)"/>
<path d="M0 0 C4.34863652 0.56444825 7.17827655 2.15427964 10.8125 4.5625 C12.27623047 5.52349609 12.27623047 5.52349609 13.76953125 6.50390625 C14.50558594 6.99761719 15.24164063 7.49132812 16 8 C15.67 8.66 15.34 9.32 15 10 C8.97229862 9.52412884 4.23321711 6.80277043 -1 4 C-0.67 2.68 -0.34 1.36 0 0 Z " fill="#FCA636" transform="translate(417,431)"/>
<path d="M0 0 C0.66 0.33 1.32 0.66 2 1 C2 1.66 2 2.32 2 3 C3.98 3 5.96 3 8 3 C8 3.33 8 3.66 8 4 C-1.405 4.495 -1.405 4.495 -11 5 C-11.33 3.68 -11.66 2.36 -12 1 C-7.99071724 -1.83990862 -4.58821702 -0.8140385 0 0 Z " fill="#F59FC5" transform="translate(652,415)"/>
<path d="M0 0 C4.49482352 0.55696726 7.68383424 3.35347948 11.25 5.9375 C11.8996875 6.39318359 12.549375 6.84886719 13.21875 7.31835938 C14.85312724 8.49092203 16.43195244 9.74011152 18 11 C18 11.66 18 12.32 18 13 C12.89115395 11.56952311 8.98255739 9.28610306 4.625 6.375 C3.98433594 5.95476562 3.34367187 5.53453125 2.68359375 5.1015625 C1.11844302 4.07370232 -0.44134314 3.03768114 -2 2 C-1.34 1.34 -0.68 0.68 0 0 Z " fill="#FC9720" transform="translate(432,440)"/>
<path d="M0 0 C2.46060345 3.02843502 4.87203778 6.09389512 7.25 9.1875 C7.77078125 9.86167969 8.2915625 10.53585937 8.828125 11.23046875 C10 13 10 13 10 15 C6.47761953 13.43632643 3.72876006 11.30504111 0.75 8.875 C-0.14203125 8.15054687 -1.0340625 7.42609375 -1.953125 6.6796875 C-2.96632813 5.84824219 -2.96632813 5.84824219 -4 5 C-2.25 1.125 -2.25 1.125 0 0 Z " fill="#F9CDDC" transform="translate(668,416)"/>
<path d="M0 0 C3.5624827 -0.02913821 7.12493454 -0.04684529 10.6875 -0.0625 C12.19860352 -0.07506836 12.19860352 -0.07506836 13.74023438 -0.08789062 C14.71669922 -0.09111328 15.69316406 -0.09433594 16.69921875 -0.09765625 C18.04246216 -0.10551147 18.04246216 -0.10551147 19.4128418 -0.11352539 C22.03641759 0.00159802 24.44293053 0.41765715 27 1 C27 1.33 27 1.66 27 2 C19.08 2.33 11.16 2.66 3 3 C3 3.99 3 4.98 3 6 C2.34 6 1.68 6 1 6 C0.67 6.99 0.34 7.98 0 9 C0 6.03 0 3.06 0 0 Z " fill="#B3D948" transform="translate(304,314)"/>
<path d="M0 0 C3.90604833 -0.56963205 5.91600854 -0.73522899 9.24609375 1.5234375 C11.25857962 3.28122373 13.18727923 5.03661153 15 7 C15 7.33 15 7.66 15 8 C8.18461113 8.71740936 8.18461113 8.71740936 4.91015625 6.734375 C3.12678067 5.23181725 1.48880229 3.79586776 0 2 C0 1.34 0 0.68 0 0 Z " fill="#5CAE38" transform="translate(332,807)"/>
<path d="M0 0 C0.70744354 0.00141495 1.41488708 0.0028299 2.14376831 0.00428772 C4.40578419 0.00989025 6.66770148 0.02244307 8.9296875 0.03515625 C10.46223815 0.04017093 11.99479036 0.04473389 13.52734375 0.04882812 C17.28649638 0.05986048 21.04557522 0.07712673 24.8046875 0.09765625 C24.8046875 0.42765625 24.8046875 0.75765625 24.8046875 1.09765625 C23.57165894 1.12738525 23.57165894 1.12738525 22.3137207 1.15771484 C18.58122624 1.25310228 14.8492808 1.36272714 11.1171875 1.47265625 C9.17682617 1.5190625 9.17682617 1.5190625 7.19726562 1.56640625 C5.95009766 1.60507813 4.70292969 1.64375 3.41796875 1.68359375 C2.27110596 1.71501465 1.12424316 1.74643555 -0.05737305 1.77880859 C-4.08415256 2.18797175 -7.05272423 2.95506798 -9.9453125 5.84765625 C-11.4631294 8.57972666 -11.84454428 11.01089593 -12.1953125 14.09765625 C-12.5253125 14.09765625 -12.8553125 14.09765625 -13.1953125 14.09765625 C-13.68560872 6.865787 -13.68560872 6.865787 -11.3203125 3.16015625 C-7.71335672 -0.3407126 -4.78419196 -0.03580511 0 0 Z " fill="#43D5CC" transform="translate(535.1953125,184.90234375)"/>
<path d="M0 0 C1.03125 0.165 2.0625 0.33 3.125 0.5 C3.125 2.5 3.125 2.5 1.8046875 4.0078125 C-3.11592409 8.41719172 -3.11592409 8.41719172 -7.3125 8.875 C-8.158125 8.75125 -9.00375 8.6275 -9.875 8.5 C-5.09600656 0.65754923 -5.09600656 0.65754923 0 0 Z " fill="#61B443" transform="translate(444.875,806.5)"/>
<path d="M0 0 C3.3 0 6.6 0 10 0 C8.02 0.99 8.02 0.99 6 2 C8.64 2.66 11.28 3.32 14 4 C13.67 4.66 13.34 5.32 13 6 C11.0412957 5.85923685 9.08303907 5.7122324 7.125 5.5625 C6.03445313 5.48128906 4.94390625 5.40007812 3.8203125 5.31640625 C1 5 1 5 -1 4 C-0.67 2.68 -0.34 1.36 0 0 Z " fill="#6FB032" transform="translate(679,467)"/>
<path d="M0 0 C0.66 0.4125 1.32 0.825 2 1.25 C-7.22222222 7.39814815 -7.22222222 7.39814815 -12 7 C-12.66 6.7525 -13.32 6.505 -14 6.25 C-10.28652125 2.24820768 -5.56846273 -1.39211568 0 0 Z " fill="#E34782" transform="translate(620,425.75)"/>
<path d="M0 0 C0.99 0.495 0.99 0.495 2 1 C3.16755779 7.43679686 3.11415641 13.59360065 2 20 C2.33 20.66 2.66 21.32 3 22 C2.01 23.32 1.02 24.64 0 26 C0 17.42 0 8.84 0 0 Z " fill="#C70C4D" transform="translate(518,501)"/>
<path d="M0 0 C0.99 0.33 1.98 0.66 3 1 C0.0881223 4.34326698 -1.64073563 5.40555486 -6 6 C-8.10323534 6.0659735 -10.20835724 6.08562245 -12.3125 6.0625 C-13.38113281 6.05347656 -14.44976562 6.04445313 -15.55078125 6.03515625 C-16.35902344 6.02355469 -17.16726563 6.01195312 -18 6 C-14.56256596 4.03938947 -11.16733494 3.26199437 -7.3125 2.4375 C-3.33976595 1.87800521 -3.33976595 1.87800521 0 0 Z " fill="#7AB732" transform="translate(336,468)"/>
<path d="M0 0 C3.0831351 1.19899698 6.06279492 2.47700477 9 4 C9 4.66 9 5.32 9 6 C10.32 5.67 11.64 5.34 13 5 C15.31 7.97 17.62 10.94 20 14 C16.09798105 14 14.91012999 12.31411931 12.1171875 9.796875 C8.90758104 7.07285476 5.42737738 4.7713889 1.94140625 2.41796875 C1.30074219 1.95003906 0.66007812 1.48210938 0 1 C0 0.67 0 0.34 0 0 Z " fill="#327A29" transform="translate(483,523)"/>
<path d="M0 0 C0.33 0 0.66 0 1 0 C-0.07609586 17.24585211 -0.07609586 17.24585211 -4.125 20.9375 C-4.74375 21.288125 -5.3625 21.63875 -6 22 C-4.125 16.25 -4.125 16.25 -3 14 C-2.72514541 11.21218916 -2.55387262 8.42464545 -2.37890625 5.62890625 C-2 3 -2 3 0 0 Z " fill="#FDE2A4" transform="translate(362,396)"/>
<path d="M0 0 C2.83714688 4.25572032 3.12575087 7.36484417 3.09765625 12.421875 C3.09443359 13.44667969 3.09121094 14.47148437 3.08789062 15.52734375 C3.07951172 16.59082031 3.07113281 17.65429688 3.0625 18.75 C3.05798828 19.82894531 3.05347656 20.90789062 3.04882812 22.01953125 C3.03705727 24.67974383 3.02061399 27.33984365 3 30 C2.67 30 2.34 30 2 30 C1.93941406 28.79601562 1.87882813 27.59203125 1.81640625 26.3515625 C1.73200268 24.77602923 1.64735459 23.20050904 1.5625 21.625 C1.52318359 20.8309375 1.48386719 20.036875 1.44335938 19.21875 C1.31106596 14.97398779 1.31106596 14.97398779 0 11 C-0.07033769 9.12620395 -0.0843022 7.24998898 -0.0625 5.375 C-0.05347656 4.37210937 -0.04445313 3.36921875 -0.03515625 2.3359375 C-0.02355469 1.56507813 -0.01195312 0.79421875 0 0 Z " fill="#F070A0" transform="translate(664,383)"/>
<path d="M0 0 C0.66 0.33 1.32 0.66 2 1 C3.61037909 6.18899929 4.22541675 10.58999807 4 16 C3.01 15.34 2.02 14.68 1 14 C0.01 14.495 0.01 14.495 -1 15 C-0.67 10.05 -0.34 5.1 0 0 Z " fill="#B4D468" transform="translate(713,451)"/>
<path d="M0 0 C0.66 0.33 1.32 0.66 2 1 C-0.31 3.31 -2.62 5.62 -5 8 C-2.36 8.33 0.28 8.66 3 9 C3 9.33 3 9.66 3 10 C-0.96 10 -4.92 10 -9 10 C-7.8125 5.25 -7.8125 5.25 -5 3 C-4.34 3 -3.68 3 -3 3 C-1.37485532 1.54166642 -1.37485532 1.54166642 0 0 Z " fill="#FDC555" transform="translate(352,427)"/>
<path d="M0 0 C0 0.99 0 1.98 0 3 C0.66 3.33 1.32 3.66 2 4 C-1.96 4.66 -5.92 5.32 -10 6 C-10 5.01 -10 4.02 -10 3 C-9.01 3 -8.02 3 -7 3 C-6.67 2.01 -6.34 1.02 -6 0 C-3 -1 -3 -1 0 0 Z " fill="#F079A9" transform="translate(641,417)"/>
<path d="M0 0 C0.99 0.33 1.98 0.66 3 1 C-1.29 5.29 -5.58 9.58 -10 14 C-10.33 13.01 -10.66 12.02 -11 11 C-7.37 7.37 -3.74 3.74 0 0 Z " fill="#308026" transform="translate(554,499)"/>
<path d="M0 0 C0.99 1.32 1.98 2.64 3 4 C0.87875034 4.86343824 -1.24713072 5.71550648 -3.375 6.5625 C-5.15003906 7.27599609 -5.15003906 7.27599609 -6.9609375 8.00390625 C-10 9 -10 9 -12 8 C-8.04 5.36 -4.08 2.72 0 0 Z " fill="#216DB1" transform="translate(539,538)"/>
<path d="M0 0 C7.26 0.66 14.52 1.32 22 2 C22 2.99 22 3.98 22 5 C18.70635515 4.55520195 15.41558186 4.09187655 12.125 3.625 C10.71927734 3.43550781 10.71927734 3.43550781 9.28515625 3.2421875 C7.94130859 3.04882812 7.94130859 3.04882812 6.5703125 2.8515625 C5.74289551 2.73635254 4.91547852 2.62114258 4.06298828 2.50244141 C2 2 2 2 0 0 Z " fill="#F3B62A" transform="translate(684,539)"/>
<path d="M0 0 C0.33 0 0.66 0 1 0 C2.22517308 5.66642551 2.09228867 11.23708518 2 17 C1.67 17 1.34 17 1 17 C0.67 14.36 0.34 11.72 0 9 C-0.66 9.66 -1.32 10.32 -2 11 C-1.85957123 9.35369672 -1.71250671 7.70795821 -1.5625 6.0625 C-1.48128906 5.14597656 -1.40007812 4.22945313 -1.31640625 3.28515625 C-1 1 -1 1 0 0 Z " fill="#FDD577" transform="translate(362,388)"/>
<path d="M0 0 C1.25240315 3.75720944 0.4357968 4.41050801 -1 8 C-1.45555876 10.66402839 -1.72626593 13.30828164 -2 16 C-2.66 16 -3.32 16 -4 16 C-4.33 16.66 -4.66 17.32 -5 18 C-4.42934122 11.58008874 -2.32655091 5.98410537 0 0 Z " fill="#BF124F" transform="translate(527,495)"/>
<path d="M0 0 C4.67105792 1.55701931 8.08705685 4.08447373 12 7 C8.51457146 8.16180951 8.02769331 7.8772131 4.875 6.3125 C3.81925781 5.81169922 3.81925781 5.81169922 2.7421875 5.30078125 C1 4 1 4 0.2578125 1.85546875 C0.17273438 1.24316406 0.08765625 0.63085938 0 0 Z " fill="#2063A7" transform="translate(485,539)"/>
<path d="M0 0 C2.93200474 2.85276137 5.64315404 5.65079784 8 9 C7.67 9.66 7.34 10.32 7 11 C4.03 8.69 1.06 6.38 -2 4 C-1.34 3.67 -0.68 3.34 0 3 C0 2.01 0 1.02 0 0 Z " fill="#89BC3C" transform="translate(723,476)"/>
<path d="M0 0 C-0.47566406 0.84304687 -0.47566406 0.84304687 -0.9609375 1.703125 C-2.06874525 4.15196317 -2.38975399 6.08387855 -2.625 8.75 C-2.69976563 9.54921875 -2.77453125 10.3484375 -2.8515625 11.171875 C-2.90054688 11.77515625 -2.94953125 12.3784375 -3 13 C-3.66 13 -4.32 13 -5 13 C-5.46882399 4.87371744 -5.46882399 4.87371744 -3.625 1.4375 C-2 0 -2 0 0 0 Z " fill="#F96656" transform="translate(623,210)"/>
<path d="M0 0 C1.81242052 -0.02687279 3.62495233 -0.04633715 5.4375 -0.0625 C6.44683594 -0.07410156 7.45617187 -0.08570313 8.49609375 -0.09765625 C11 0 11 0 12 1 C12.04092937 3.33297433 12.04241723 5.66705225 12 8 C10 5 10 5 10 2 C8.081875 2.061875 8.081875 2.061875 6.125 2.125 C3.9453125 2.1953125 3.9453125 2.1953125 2 2 C1.34 1.34 0.68 0.68 0 0 Z " fill="#1F9AED" transform="translate(746,359)"/>
<path d="M0 0 C0.9075 0.103125 1.815 0.20625 2.75 0.3125 C1.88375 0.6528125 1.88375 0.6528125 1 1 C-1.92495373 2.70622301 -3.38816514 4.48764711 -5.25 7.3125 C-6.04690838 10.50012109 -6.04690838 10.50012109 -6.25 13.3125 C-6.58 13.3125 -6.91 13.3125 -7.25 13.3125 C-7.7320394 6.20241889 -7.7320394 6.20241889 -5.625 2.3125 C-3.25 0.3125 -3.25 0.3125 0 0 Z " fill="#1ECFB8" transform="translate(529.25,185.6875)"/>
<path d="M0 0 C3.21524305 1.40844718 5.32183868 3.10344786 7.75 5.625 C8.67039062 6.57246094 8.67039062 6.57246094 9.609375 7.5390625 C10.29773438 8.26222656 10.29773438 8.26222656 11 9 C10.67 9.99 10.34 10.98 10 12 C9.44570313 11.36191406 8.89140625 10.72382812 8.3203125 10.06640625 C7.23363281 8.82697266 7.23363281 8.82697266 6.125 7.5625 C5.40570313 6.73878906 4.68640625 5.91507812 3.9453125 5.06640625 C2.16761255 2.94017845 2.16761255 2.94017845 0 2 C0 1.34 0 0.68 0 0 Z " fill="#347728" transform="translate(472,502)"/>
<path d="M0 0 C2.40072955 2.88087546 4.47291037 5.56404834 6 9 C2.18315774 7.44499019 -0.19195732 4.96404505 -3 2 C-2.01 2 -1.02 2 0 2 C0 1.34 0 0.68 0 0 Z " fill="#F284A8" transform="translate(672,422)"/>
<path d="M0 0 C2.31 0 4.62 0 7 0 C7 1.65 7 3.3 7 5 C3.47967572 5 2.5614657 4.29648649 0 2 C0 1.34 0 0.68 0 0 Z " fill="#6CB64E" transform="translate(332,807)"/>
<path d="M0 0 C-0.33 0.66 -0.66 1.32 -1 2 C-1.99 2 -2.98 2 -4 2 C-4.33 2.66 -4.66 3.32 -5 4 C-6.98 3.34 -8.96 2.68 -11 2 C-11 1.67 -11 1.34 -11 1 C-7.26562152 0.12132271 -3.83225427 -0.08912219 0 0 Z " fill="#83BC3C" transform="translate(695,467)"/>
<path d="M0 0 C5.28 0 10.56 0 16 0 C16 0.33 16 0.66 16 1 C15.09636719 1.04898437 14.19273437 1.09796875 13.26171875 1.1484375 C12.08222656 1.22320312 10.90273438 1.29796875 9.6875 1.375 C7.92986328 1.47941406 7.92986328 1.47941406 6.13671875 1.5859375 C2.84300113 1.78613747 2.84300113 1.78613747 0 4 C0 2.68 0 1.36 0 0 Z " fill="#088CE9" transform="translate(267,360)"/>
<path d="M0 0 C0.66 0 1.32 0 2 0 C2.36923077 5.53846154 2.36923077 5.53846154 0.5 7.875 C-0.2425 8.431875 -0.2425 8.431875 -1 9 C-1.09765625 2.84765625 -1.09765625 2.84765625 -1 1 C-0.67 0.67 -0.34 0.34 0 0 Z " fill="#FEA025" transform="translate(457,236)"/>
<path d="M0 0 C2.97 0 5.94 0 9 0 C6.3144406 2.6855594 3.62378672 3.06049974 0 4 C0 2.68 0 1.36 0 0 Z " fill="#C9924B" transform="translate(759,586)"/>
<path d="M0 0 C0.66 0.33 1.32 0.66 2 1 C-1.3 3.31 -4.6 5.62 -8 8 C-8.66 7.67 -9.32 7.34 -10 7 C-8.70982586 6.01886757 -7.41780894 5.04015801 -6.125 4.0625 C-5.04605469 3.24458984 -5.04605469 3.24458984 -3.9453125 2.41015625 C-2 1 -2 1 0 0 Z " fill="#D42163" transform="translate(573,469)"/>
<path d="M0 0 C2 2 2 2 2.1953125 3.9453125 C2.13020833 5.96354167 2.06510417 7.98177083 2 10 C1.01 10 0.02 10 -1 10 C-0.67 6.7 -0.34 3.4 0 0 Z " fill="#F6ABC8" transform="translate(664,394)"/>
<path d="M0 0 C1.32 0.33 2.64 0.66 4 1 C4.33 2.32 4.66 3.64 5 5 C3.68 4.67 2.36 4.34 1 4 C0.67 5.32 0.34 6.64 0 8 C0 5.36 0 2.72 0 0 Z " fill="#FDCC19" transform="translate(362,295)"/>
<path d="M0 0 C-0.66 0.66 -1.32 1.32 -2 2 C-4.125 1.625 -4.125 1.625 -6 1 C-6 1.66 -6 2.32 -6 3 C-8.64 2.67 -11.28 2.34 -14 2 C-14 1.67 -14 1.34 -14 1 C-9.23692563 0.04738513 -4.8333472 -0.08333357 0 0 Z " fill="#F2C244" transform="translate(326,541)"/>
<path d="M0 0 C0.66 0 1.32 0 2 0 C1.875 1.75 1.875 1.75 1 4 C-2.0625 6.25 -2.0625 6.25 -5 8 C-3.63055898 5.05043472 -2.12169591 2.47531189 0 0 Z " fill="#489E4F" transform="translate(527,530)"/>
<path d="M0 0 C-3.44833324 2.05257931 -5.31661591 3.0632763 -9.375 2.6875 C-10.24125 2.460625 -11.1075 2.23375 -12 2 C-12 1.67 -12 1.34 -12 1 C-10.37681021 0.63762737 -8.7513642 0.28534843 -7.125 -0.0625 C-6.22007812 -0.25972656 -5.31515625 -0.45695313 -4.3828125 -0.66015625 C-2 -1 -2 -1 0 0 Z " fill="#F5C73E" transform="translate(279,550)"/>
<path d="M0 0 C2.83374881 3.20336822 3.5205537 5.78087253 4 10 C-0.60921053 4.64736842 -0.60921053 4.64736842 -1 1 C-0.67 0.67 -0.34 0.34 0 0 Z " fill="#EB5B02" transform="translate(498,503)"/>
<path d="M0 0 C0.99 1.32 1.98 2.64 3 4 C0.69 4.66 -1.62 5.32 -4 6 C-2.25 1.125 -2.25 1.125 0 0 Z " fill="#1365AD" transform="translate(539,538)"/>
<path d="M0 0 C1.75 0.125 1.75 0.125 4 1 C6.25 4.0625 6.25 4.0625 8 7 C4.2047869 5.50902342 2.38957269 3.24299151 0 0 Z " fill="#358251" transform="translate(495,531)"/>
<path d="M0 0 C0.33 0.66 0.66 1.32 1 2 C1.66 2.33 2.32 2.66 3 3 C1.35 4.32 -0.3 5.64 -2 7 C-2.66 6.67 -3.32 6.34 -4 6 C-2.68 4.02 -1.36 2.04 0 0 Z " fill="#95C73B" transform="translate(298,480)"/>
<path d="M0 0 C0.66 0.66 1.32 1.32 2 2 C-0.97 4.475 -0.97 4.475 -4 7 C-4 4 -4 4 -2 1.8125 C-1.34 1.214375 -0.68 0.61625 0 0 Z " fill="#FB5278" transform="translate(565,328)"/>
</svg>
